<mxfile host="app.diagrams.net" agent="Mozilla/5.0 (Windows NT 10.0; Win64; x64) AppleWebKit/537.36 (KHTML, like Gecko) Chrome/128.0.0.0 Safari/537.36 Edg/128.0.0.0" version="24.7.14">
  <diagram name="Page-1" id="xK0y7f6hYwNwhpLCpOX3">
    <mxGraphModel grid="0" page="0" gridSize="10" guides="1" tooltips="1" connect="1" arrows="1" fold="1" pageScale="1" pageWidth="850" pageHeight="1100" math="0" shadow="0">
      <root>
        <mxCell id="0" />
        <mxCell id="1" parent="0" />
        <mxCell id="GWjoIAEa0WmcNTmmGCFZ-1" value="Product_Dim" style="shape=table;startSize=24;container=1;collapsible=1;childLayout=tableLayout;fixedRows=1;rowLines=0;fontStyle=1;align=center;resizeLast=1;fontSize=14;fillColor=#dae8fc;strokeColor=#6c8ebf;" vertex="1" parent="1">
          <mxGeometry x="-1071" y="-366" width="244.97" height="390" as="geometry" />
        </mxCell>
        <mxCell id="GWjoIAEa0WmcNTmmGCFZ-2" value="" style="shape=partialRectangle;collapsible=0;dropTarget=0;pointerEvents=0;fillColor=#dae8fc;points=[[0,0.5],[1,0.5]];portConstraint=eastwest;top=0;left=0;right=0;bottom=1;fontSize=14;strokeColor=#6c8ebf;" vertex="1" parent="GWjoIAEa0WmcNTmmGCFZ-1">
          <mxGeometry y="24" width="244.97" height="30" as="geometry" />
        </mxCell>
        <mxCell id="GWjoIAEa0WmcNTmmGCFZ-3" value="PK" style="shape=partialRectangle;overflow=hidden;connectable=0;fillColor=#dae8fc;top=0;left=0;bottom=0;right=0;fontStyle=1;fontSize=14;strokeColor=#6c8ebf;" vertex="1" parent="GWjoIAEa0WmcNTmmGCFZ-2">
          <mxGeometry width="30" height="30" as="geometry">
            <mxRectangle width="30" height="30" as="alternateBounds" />
          </mxGeometry>
        </mxCell>
        <mxCell id="GWjoIAEa0WmcNTmmGCFZ-4" value="Product_SK" style="shape=partialRectangle;overflow=hidden;connectable=0;fillColor=#dae8fc;top=0;left=0;bottom=0;right=0;align=left;spacingLeft=6;fontStyle=5;fontSize=14;strokeColor=#6c8ebf;" vertex="1" parent="GWjoIAEa0WmcNTmmGCFZ-2">
          <mxGeometry x="30" width="214.97" height="30" as="geometry">
            <mxRectangle width="214.97" height="30" as="alternateBounds" />
          </mxGeometry>
        </mxCell>
        <mxCell id="GWjoIAEa0WmcNTmmGCFZ-8" value="" style="shape=partialRectangle;collapsible=0;dropTarget=0;pointerEvents=0;fillColor=#dae8fc;points=[[0,0.5],[1,0.5]];portConstraint=eastwest;top=0;left=0;right=0;bottom=0;fontSize=14;strokeColor=#6c8ebf;" vertex="1" parent="GWjoIAEa0WmcNTmmGCFZ-1">
          <mxGeometry y="54" width="244.97" height="29" as="geometry" />
        </mxCell>
        <mxCell id="GWjoIAEa0WmcNTmmGCFZ-9" value="" style="shape=partialRectangle;overflow=hidden;connectable=0;fillColor=#dae8fc;top=0;left=0;bottom=0;right=0;fontSize=14;strokeColor=#6c8ebf;" vertex="1" parent="GWjoIAEa0WmcNTmmGCFZ-8">
          <mxGeometry width="30" height="29" as="geometry">
            <mxRectangle width="30" height="29" as="alternateBounds" />
          </mxGeometry>
        </mxCell>
        <mxCell id="GWjoIAEa0WmcNTmmGCFZ-10" value="ProductID" style="shape=partialRectangle;overflow=hidden;connectable=0;fillColor=#dae8fc;top=0;left=0;bottom=0;right=0;align=left;spacingLeft=6;fontSize=14;strokeColor=#6c8ebf;" vertex="1" parent="GWjoIAEa0WmcNTmmGCFZ-8">
          <mxGeometry x="30" width="214.97" height="29" as="geometry">
            <mxRectangle width="214.97" height="29" as="alternateBounds" />
          </mxGeometry>
        </mxCell>
        <mxCell id="GWjoIAEa0WmcNTmmGCFZ-11" value="" style="shape=partialRectangle;collapsible=0;dropTarget=0;pointerEvents=0;fillColor=#dae8fc;points=[[0,0.5],[1,0.5]];portConstraint=eastwest;top=0;left=0;right=0;bottom=0;fontSize=14;strokeColor=#6c8ebf;" vertex="1" parent="GWjoIAEa0WmcNTmmGCFZ-1">
          <mxGeometry y="83" width="244.97" height="30" as="geometry" />
        </mxCell>
        <mxCell id="GWjoIAEa0WmcNTmmGCFZ-12" value="" style="shape=partialRectangle;overflow=hidden;connectable=0;fillColor=#dae8fc;top=0;left=0;bottom=0;right=0;fontSize=14;strokeColor=#6c8ebf;" vertex="1" parent="GWjoIAEa0WmcNTmmGCFZ-11">
          <mxGeometry width="30" height="30" as="geometry">
            <mxRectangle width="30" height="30" as="alternateBounds" />
          </mxGeometry>
        </mxCell>
        <mxCell id="GWjoIAEa0WmcNTmmGCFZ-13" value="ProductName" style="shape=partialRectangle;overflow=hidden;connectable=0;fillColor=#dae8fc;top=0;left=0;bottom=0;right=0;align=left;spacingLeft=6;fontSize=14;strokeColor=#6c8ebf;" vertex="1" parent="GWjoIAEa0WmcNTmmGCFZ-11">
          <mxGeometry x="30" width="214.97" height="30" as="geometry">
            <mxRectangle width="214.97" height="30" as="alternateBounds" />
          </mxGeometry>
        </mxCell>
        <mxCell id="GWjoIAEa0WmcNTmmGCFZ-14" value="" style="shape=partialRectangle;collapsible=0;dropTarget=0;pointerEvents=0;fillColor=#dae8fc;points=[[0,0.5],[1,0.5]];portConstraint=eastwest;top=0;left=0;right=0;bottom=0;fontSize=14;strokeColor=#6c8ebf;" vertex="1" parent="GWjoIAEa0WmcNTmmGCFZ-1">
          <mxGeometry y="113" width="244.97" height="25" as="geometry" />
        </mxCell>
        <mxCell id="GWjoIAEa0WmcNTmmGCFZ-15" value="" style="shape=partialRectangle;overflow=hidden;connectable=0;fillColor=#dae8fc;top=0;left=0;bottom=0;right=0;fontSize=14;strokeColor=#6c8ebf;" vertex="1" parent="GWjoIAEa0WmcNTmmGCFZ-14">
          <mxGeometry width="30" height="25" as="geometry">
            <mxRectangle width="30" height="25" as="alternateBounds" />
          </mxGeometry>
        </mxCell>
        <mxCell id="GWjoIAEa0WmcNTmmGCFZ-16" value="QuantityPerUnit" style="shape=partialRectangle;overflow=hidden;connectable=0;fillColor=#dae8fc;top=0;left=0;bottom=0;right=0;align=left;spacingLeft=6;fontSize=14;strokeColor=#6c8ebf;" vertex="1" parent="GWjoIAEa0WmcNTmmGCFZ-14">
          <mxGeometry x="30" width="214.97" height="25" as="geometry">
            <mxRectangle width="214.97" height="25" as="alternateBounds" />
          </mxGeometry>
        </mxCell>
        <mxCell id="GWjoIAEa0WmcNTmmGCFZ-17" value="" style="shape=partialRectangle;collapsible=0;dropTarget=0;pointerEvents=0;fillColor=#dae8fc;points=[[0,0.5],[1,0.5]];portConstraint=eastwest;top=0;left=0;right=0;bottom=0;fontSize=14;strokeColor=#6c8ebf;" vertex="1" parent="GWjoIAEa0WmcNTmmGCFZ-1">
          <mxGeometry y="138" width="244.97" height="30" as="geometry" />
        </mxCell>
        <mxCell id="GWjoIAEa0WmcNTmmGCFZ-18" value="" style="shape=partialRectangle;overflow=hidden;connectable=0;fillColor=#dae8fc;top=0;left=0;bottom=0;right=0;fontSize=14;strokeColor=#6c8ebf;" vertex="1" parent="GWjoIAEa0WmcNTmmGCFZ-17">
          <mxGeometry width="30" height="30" as="geometry">
            <mxRectangle width="30" height="30" as="alternateBounds" />
          </mxGeometry>
        </mxCell>
        <mxCell id="GWjoIAEa0WmcNTmmGCFZ-19" value="UnitPrice" style="shape=partialRectangle;overflow=hidden;connectable=0;fillColor=#dae8fc;top=0;left=0;bottom=0;right=0;align=left;spacingLeft=6;fontSize=14;strokeColor=#6c8ebf;" vertex="1" parent="GWjoIAEa0WmcNTmmGCFZ-17">
          <mxGeometry x="30" width="214.97" height="30" as="geometry">
            <mxRectangle width="214.97" height="30" as="alternateBounds" />
          </mxGeometry>
        </mxCell>
        <mxCell id="GWjoIAEa0WmcNTmmGCFZ-20" value="" style="shape=partialRectangle;collapsible=0;dropTarget=0;pointerEvents=0;fillColor=#dae8fc;points=[[0,0.5],[1,0.5]];portConstraint=eastwest;top=0;left=0;right=0;bottom=0;fontSize=14;strokeColor=#6c8ebf;" vertex="1" parent="GWjoIAEa0WmcNTmmGCFZ-1">
          <mxGeometry y="168" width="244.97" height="30" as="geometry" />
        </mxCell>
        <mxCell id="GWjoIAEa0WmcNTmmGCFZ-21" value="" style="shape=partialRectangle;overflow=hidden;connectable=0;fillColor=#dae8fc;top=0;left=0;bottom=0;right=0;fontSize=14;strokeColor=#6c8ebf;" vertex="1" parent="GWjoIAEa0WmcNTmmGCFZ-20">
          <mxGeometry width="30" height="30" as="geometry">
            <mxRectangle width="30" height="30" as="alternateBounds" />
          </mxGeometry>
        </mxCell>
        <mxCell id="GWjoIAEa0WmcNTmmGCFZ-22" value="UnitsInStock" style="shape=partialRectangle;overflow=hidden;connectable=0;fillColor=#dae8fc;top=0;left=0;bottom=0;right=0;align=left;spacingLeft=6;fontSize=14;strokeColor=#6c8ebf;" vertex="1" parent="GWjoIAEa0WmcNTmmGCFZ-20">
          <mxGeometry x="30" width="214.97" height="30" as="geometry">
            <mxRectangle width="214.97" height="30" as="alternateBounds" />
          </mxGeometry>
        </mxCell>
        <mxCell id="GWjoIAEa0WmcNTmmGCFZ-23" value="" style="shape=partialRectangle;collapsible=0;dropTarget=0;pointerEvents=0;fillColor=#dae8fc;points=[[0,0.5],[1,0.5]];portConstraint=eastwest;top=0;left=0;right=0;bottom=0;fontSize=14;strokeColor=#6c8ebf;" vertex="1" parent="GWjoIAEa0WmcNTmmGCFZ-1">
          <mxGeometry y="198" width="244.97" height="30" as="geometry" />
        </mxCell>
        <mxCell id="GWjoIAEa0WmcNTmmGCFZ-24" value="" style="shape=partialRectangle;overflow=hidden;connectable=0;fillColor=#dae8fc;top=0;left=0;bottom=0;right=0;fontSize=14;strokeColor=#6c8ebf;" vertex="1" parent="GWjoIAEa0WmcNTmmGCFZ-23">
          <mxGeometry width="30" height="30" as="geometry">
            <mxRectangle width="30" height="30" as="alternateBounds" />
          </mxGeometry>
        </mxCell>
        <mxCell id="GWjoIAEa0WmcNTmmGCFZ-25" value="UnitsOnOrder" style="shape=partialRectangle;overflow=hidden;connectable=0;fillColor=#dae8fc;top=0;left=0;bottom=0;right=0;align=left;spacingLeft=6;fontSize=14;strokeColor=#6c8ebf;" vertex="1" parent="GWjoIAEa0WmcNTmmGCFZ-23">
          <mxGeometry x="30" width="214.97" height="30" as="geometry">
            <mxRectangle width="214.97" height="30" as="alternateBounds" />
          </mxGeometry>
        </mxCell>
        <mxCell id="GWjoIAEa0WmcNTmmGCFZ-26" value="" style="shape=partialRectangle;collapsible=0;dropTarget=0;pointerEvents=0;fillColor=#dae8fc;points=[[0,0.5],[1,0.5]];portConstraint=eastwest;top=0;left=0;right=0;bottom=0;fontSize=14;strokeColor=#6c8ebf;" vertex="1" parent="GWjoIAEa0WmcNTmmGCFZ-1">
          <mxGeometry y="228" width="244.97" height="30" as="geometry" />
        </mxCell>
        <mxCell id="GWjoIAEa0WmcNTmmGCFZ-27" value="" style="shape=partialRectangle;overflow=hidden;connectable=0;fillColor=#dae8fc;top=0;left=0;bottom=0;right=0;fontSize=14;strokeColor=#6c8ebf;" vertex="1" parent="GWjoIAEa0WmcNTmmGCFZ-26">
          <mxGeometry width="30" height="30" as="geometry">
            <mxRectangle width="30" height="30" as="alternateBounds" />
          </mxGeometry>
        </mxCell>
        <mxCell id="GWjoIAEa0WmcNTmmGCFZ-28" value="ReorderLevel" style="shape=partialRectangle;overflow=hidden;connectable=0;fillColor=#dae8fc;top=0;left=0;bottom=0;right=0;align=left;spacingLeft=6;fontSize=14;strokeColor=#6c8ebf;" vertex="1" parent="GWjoIAEa0WmcNTmmGCFZ-26">
          <mxGeometry x="30" width="214.97" height="30" as="geometry">
            <mxRectangle width="214.97" height="30" as="alternateBounds" />
          </mxGeometry>
        </mxCell>
        <mxCell id="GWjoIAEa0WmcNTmmGCFZ-29" value="" style="shape=partialRectangle;collapsible=0;dropTarget=0;pointerEvents=0;fillColor=#dae8fc;points=[[0,0.5],[1,0.5]];portConstraint=eastwest;top=0;left=0;right=0;bottom=0;fontSize=14;strokeColor=#6c8ebf;" vertex="1" parent="GWjoIAEa0WmcNTmmGCFZ-1">
          <mxGeometry y="258" width="244.97" height="25" as="geometry" />
        </mxCell>
        <mxCell id="GWjoIAEa0WmcNTmmGCFZ-30" value="" style="shape=partialRectangle;overflow=hidden;connectable=0;fillColor=#dae8fc;top=0;left=0;bottom=0;right=0;fontSize=14;strokeColor=#6c8ebf;" vertex="1" parent="GWjoIAEa0WmcNTmmGCFZ-29">
          <mxGeometry width="30" height="25" as="geometry">
            <mxRectangle width="30" height="25" as="alternateBounds" />
          </mxGeometry>
        </mxCell>
        <mxCell id="GWjoIAEa0WmcNTmmGCFZ-31" value="Discontinued" style="shape=partialRectangle;overflow=hidden;connectable=0;fillColor=#dae8fc;top=0;left=0;bottom=0;right=0;align=left;spacingLeft=6;fontSize=14;strokeColor=#6c8ebf;" vertex="1" parent="GWjoIAEa0WmcNTmmGCFZ-29">
          <mxGeometry x="30" width="214.97" height="25" as="geometry">
            <mxRectangle width="214.97" height="25" as="alternateBounds" />
          </mxGeometry>
        </mxCell>
        <mxCell id="GWjoIAEa0WmcNTmmGCFZ-296" value="" style="shape=partialRectangle;collapsible=0;dropTarget=0;pointerEvents=0;fillColor=#dae8fc;points=[[0,0.5],[1,0.5]];portConstraint=eastwest;top=0;left=0;right=0;bottom=0;fontSize=14;strokeColor=#6c8ebf;" vertex="1" parent="GWjoIAEa0WmcNTmmGCFZ-1">
          <mxGeometry y="283" width="244.97" height="25" as="geometry" />
        </mxCell>
        <mxCell id="GWjoIAEa0WmcNTmmGCFZ-297" value="" style="shape=partialRectangle;overflow=hidden;connectable=0;fillColor=#dae8fc;top=0;left=0;bottom=0;right=0;fontSize=14;strokeColor=#6c8ebf;" vertex="1" parent="GWjoIAEa0WmcNTmmGCFZ-296">
          <mxGeometry width="30" height="25" as="geometry">
            <mxRectangle width="30" height="25" as="alternateBounds" />
          </mxGeometry>
        </mxCell>
        <mxCell id="GWjoIAEa0WmcNTmmGCFZ-298" value="CategoryID" style="shape=partialRectangle;overflow=hidden;connectable=0;fillColor=#dae8fc;top=0;left=0;bottom=0;right=0;align=left;spacingLeft=6;fontSize=14;strokeColor=#6c8ebf;" vertex="1" parent="GWjoIAEa0WmcNTmmGCFZ-296">
          <mxGeometry x="30" width="214.97" height="25" as="geometry">
            <mxRectangle width="214.97" height="25" as="alternateBounds" />
          </mxGeometry>
        </mxCell>
        <mxCell id="GWjoIAEa0WmcNTmmGCFZ-299" value="" style="shape=partialRectangle;collapsible=0;dropTarget=0;pointerEvents=0;fillColor=#dae8fc;points=[[0,0.5],[1,0.5]];portConstraint=eastwest;top=0;left=0;right=0;bottom=0;fontSize=14;strokeColor=#6c8ebf;" vertex="1" parent="GWjoIAEa0WmcNTmmGCFZ-1">
          <mxGeometry y="308" width="244.97" height="25" as="geometry" />
        </mxCell>
        <mxCell id="GWjoIAEa0WmcNTmmGCFZ-300" value="" style="shape=partialRectangle;overflow=hidden;connectable=0;fillColor=#dae8fc;top=0;left=0;bottom=0;right=0;fontSize=14;strokeColor=#6c8ebf;" vertex="1" parent="GWjoIAEa0WmcNTmmGCFZ-299">
          <mxGeometry width="30" height="25" as="geometry">
            <mxRectangle width="30" height="25" as="alternateBounds" />
          </mxGeometry>
        </mxCell>
        <mxCell id="GWjoIAEa0WmcNTmmGCFZ-301" value="CategoryName" style="shape=partialRectangle;overflow=hidden;connectable=0;fillColor=#dae8fc;top=0;left=0;bottom=0;right=0;align=left;spacingLeft=6;fontSize=14;strokeColor=#6c8ebf;" vertex="1" parent="GWjoIAEa0WmcNTmmGCFZ-299">
          <mxGeometry x="30" width="214.97" height="25" as="geometry">
            <mxRectangle width="214.97" height="25" as="alternateBounds" />
          </mxGeometry>
        </mxCell>
        <mxCell id="GWjoIAEa0WmcNTmmGCFZ-302" value="" style="shape=partialRectangle;collapsible=0;dropTarget=0;pointerEvents=0;fillColor=#dae8fc;points=[[0,0.5],[1,0.5]];portConstraint=eastwest;top=0;left=0;right=0;bottom=0;fontSize=14;strokeColor=#6c8ebf;" vertex="1" parent="GWjoIAEa0WmcNTmmGCFZ-1">
          <mxGeometry y="333" width="244.97" height="25" as="geometry" />
        </mxCell>
        <mxCell id="GWjoIAEa0WmcNTmmGCFZ-303" value="" style="shape=partialRectangle;overflow=hidden;connectable=0;fillColor=#dae8fc;top=0;left=0;bottom=0;right=0;fontSize=14;strokeColor=#6c8ebf;" vertex="1" parent="GWjoIAEa0WmcNTmmGCFZ-302">
          <mxGeometry width="30" height="25" as="geometry">
            <mxRectangle width="30" height="25" as="alternateBounds" />
          </mxGeometry>
        </mxCell>
        <mxCell id="GWjoIAEa0WmcNTmmGCFZ-304" value="Description" style="shape=partialRectangle;overflow=hidden;connectable=0;fillColor=#dae8fc;top=0;left=0;bottom=0;right=0;align=left;spacingLeft=6;fontSize=14;strokeColor=#6c8ebf;" vertex="1" parent="GWjoIAEa0WmcNTmmGCFZ-302">
          <mxGeometry x="30" width="214.97" height="25" as="geometry">
            <mxRectangle width="214.97" height="25" as="alternateBounds" />
          </mxGeometry>
        </mxCell>
        <mxCell id="GWjoIAEa0WmcNTmmGCFZ-305" value="" style="shape=partialRectangle;collapsible=0;dropTarget=0;pointerEvents=0;fillColor=#dae8fc;points=[[0,0.5],[1,0.5]];portConstraint=eastwest;top=0;left=0;right=0;bottom=0;fontSize=14;strokeColor=#6c8ebf;" vertex="1" parent="GWjoIAEa0WmcNTmmGCFZ-1">
          <mxGeometry y="358" width="244.97" height="32" as="geometry" />
        </mxCell>
        <mxCell id="GWjoIAEa0WmcNTmmGCFZ-306" value="" style="shape=partialRectangle;overflow=hidden;connectable=0;fillColor=#dae8fc;top=0;left=0;bottom=0;right=0;fontSize=14;strokeColor=#6c8ebf;" vertex="1" parent="GWjoIAEa0WmcNTmmGCFZ-305">
          <mxGeometry width="30" height="32" as="geometry">
            <mxRectangle width="30" height="32" as="alternateBounds" />
          </mxGeometry>
        </mxCell>
        <mxCell id="GWjoIAEa0WmcNTmmGCFZ-307" value="Picture" style="shape=partialRectangle;overflow=hidden;connectable=0;fillColor=#dae8fc;top=0;left=0;bottom=0;right=0;align=left;spacingLeft=6;fontSize=14;strokeColor=#6c8ebf;" vertex="1" parent="GWjoIAEa0WmcNTmmGCFZ-305">
          <mxGeometry x="30" width="214.97" height="32" as="geometry">
            <mxRectangle width="214.97" height="32" as="alternateBounds" />
          </mxGeometry>
        </mxCell>
        <mxCell id="GWjoIAEa0WmcNTmmGCFZ-32" value="Employee_Dim" style="shape=table;startSize=30;container=1;collapsible=1;childLayout=tableLayout;fixedRows=1;rowLines=0;fontStyle=1;align=center;resizeLast=1;fontSize=14;verticalAlign=middle;fillColor=#dae8fc;strokeColor=#6c8ebf;" vertex="1" parent="1">
          <mxGeometry x="-1765" y="-144" width="250" height="601.3333333333333" as="geometry">
            <mxRectangle x="-580" y="520" width="120" height="30" as="alternateBounds" />
          </mxGeometry>
        </mxCell>
        <mxCell id="GWjoIAEa0WmcNTmmGCFZ-33" value="" style="shape=partialRectangle;collapsible=0;dropTarget=0;pointerEvents=0;fillColor=#dae8fc;points=[[0,0.5],[1,0.5]];portConstraint=eastwest;top=0;left=0;right=0;bottom=1;fontSize=14;verticalAlign=middle;align=left;strokeColor=#6c8ebf;" vertex="1" parent="GWjoIAEa0WmcNTmmGCFZ-32">
          <mxGeometry y="30" width="250" height="30" as="geometry" />
        </mxCell>
        <mxCell id="GWjoIAEa0WmcNTmmGCFZ-34" value="PK" style="shape=partialRectangle;overflow=hidden;connectable=0;fillColor=#dae8fc;top=0;left=0;bottom=0;right=0;fontStyle=1;fontSize=14;verticalAlign=middle;align=center;strokeColor=#6c8ebf;" vertex="1" parent="GWjoIAEa0WmcNTmmGCFZ-33">
          <mxGeometry width="30" height="30" as="geometry">
            <mxRectangle width="30" height="30" as="alternateBounds" />
          </mxGeometry>
        </mxCell>
        <mxCell id="GWjoIAEa0WmcNTmmGCFZ-35" value="Employee_SK" style="shape=partialRectangle;overflow=hidden;connectable=0;fillColor=#dae8fc;top=0;left=0;bottom=0;right=0;align=left;spacingLeft=6;fontStyle=5;fontSize=14;verticalAlign=middle;strokeColor=#6c8ebf;" vertex="1" parent="GWjoIAEa0WmcNTmmGCFZ-33">
          <mxGeometry x="30" width="220" height="30" as="geometry">
            <mxRectangle width="220" height="30" as="alternateBounds" />
          </mxGeometry>
        </mxCell>
        <mxCell id="GWjoIAEa0WmcNTmmGCFZ-287" value="" style="shape=partialRectangle;collapsible=0;dropTarget=0;pointerEvents=0;fillColor=#dae8fc;points=[[0,0.5],[1,0.5]];portConstraint=eastwest;top=0;left=0;right=0;bottom=0;fontSize=14;verticalAlign=middle;align=left;strokeColor=#6c8ebf;" vertex="1" parent="GWjoIAEa0WmcNTmmGCFZ-32">
          <mxGeometry y="60" width="250" height="30" as="geometry" />
        </mxCell>
        <mxCell id="GWjoIAEa0WmcNTmmGCFZ-288" value="" style="shape=partialRectangle;overflow=hidden;connectable=0;fillColor=#dae8fc;top=0;left=0;bottom=0;right=0;fontSize=14;verticalAlign=middle;align=left;strokeColor=#6c8ebf;" vertex="1" parent="GWjoIAEa0WmcNTmmGCFZ-287">
          <mxGeometry width="30" height="30" as="geometry">
            <mxRectangle width="30" height="30" as="alternateBounds" />
          </mxGeometry>
        </mxCell>
        <mxCell id="GWjoIAEa0WmcNTmmGCFZ-289" value="EmployeeID" style="shape=partialRectangle;overflow=hidden;connectable=0;fillColor=#dae8fc;top=0;left=0;bottom=0;right=0;align=left;spacingLeft=6;fontSize=14;verticalAlign=middle;fontStyle=0;strokeColor=#6c8ebf;" vertex="1" parent="GWjoIAEa0WmcNTmmGCFZ-287">
          <mxGeometry x="30" width="220" height="30" as="geometry">
            <mxRectangle width="220" height="30" as="alternateBounds" />
          </mxGeometry>
        </mxCell>
        <mxCell id="GWjoIAEa0WmcNTmmGCFZ-36" value="" style="shape=partialRectangle;collapsible=0;dropTarget=0;pointerEvents=0;fillColor=#dae8fc;points=[[0,0.5],[1,0.5]];portConstraint=eastwest;top=0;left=0;right=0;bottom=0;fontSize=14;verticalAlign=middle;align=left;strokeColor=#6c8ebf;" vertex="1" parent="GWjoIAEa0WmcNTmmGCFZ-32">
          <mxGeometry y="90" width="250" height="30" as="geometry" />
        </mxCell>
        <mxCell id="GWjoIAEa0WmcNTmmGCFZ-37" value="" style="shape=partialRectangle;overflow=hidden;connectable=0;fillColor=#dae8fc;top=0;left=0;bottom=0;right=0;fontSize=14;verticalAlign=middle;align=left;strokeColor=#6c8ebf;" vertex="1" parent="GWjoIAEa0WmcNTmmGCFZ-36">
          <mxGeometry width="30" height="30" as="geometry">
            <mxRectangle width="30" height="30" as="alternateBounds" />
          </mxGeometry>
        </mxCell>
        <mxCell id="GWjoIAEa0WmcNTmmGCFZ-38" value="FirstName" style="shape=partialRectangle;overflow=hidden;connectable=0;fillColor=#dae8fc;top=0;left=0;bottom=0;right=0;align=left;spacingLeft=6;fontSize=14;verticalAlign=middle;strokeColor=#6c8ebf;" vertex="1" parent="GWjoIAEa0WmcNTmmGCFZ-36">
          <mxGeometry x="30" width="220" height="30" as="geometry">
            <mxRectangle width="220" height="30" as="alternateBounds" />
          </mxGeometry>
        </mxCell>
        <mxCell id="GWjoIAEa0WmcNTmmGCFZ-39" value="" style="shape=partialRectangle;collapsible=0;dropTarget=0;pointerEvents=0;fillColor=#dae8fc;points=[[0,0.5],[1,0.5]];portConstraint=eastwest;top=0;left=0;right=0;bottom=0;fontSize=14;verticalAlign=middle;align=left;strokeColor=#6c8ebf;" vertex="1" parent="GWjoIAEa0WmcNTmmGCFZ-32">
          <mxGeometry y="120" width="250" height="30" as="geometry" />
        </mxCell>
        <mxCell id="GWjoIAEa0WmcNTmmGCFZ-40" value="" style="shape=partialRectangle;overflow=hidden;connectable=0;fillColor=#dae8fc;top=0;left=0;bottom=0;right=0;fontSize=14;verticalAlign=middle;align=left;strokeColor=#6c8ebf;" vertex="1" parent="GWjoIAEa0WmcNTmmGCFZ-39">
          <mxGeometry width="30" height="30" as="geometry">
            <mxRectangle width="30" height="30" as="alternateBounds" />
          </mxGeometry>
        </mxCell>
        <mxCell id="GWjoIAEa0WmcNTmmGCFZ-41" value="LastName" style="shape=partialRectangle;overflow=hidden;connectable=0;fillColor=#dae8fc;top=0;left=0;bottom=0;right=0;align=left;spacingLeft=6;fontSize=14;verticalAlign=middle;strokeColor=#6c8ebf;" vertex="1" parent="GWjoIAEa0WmcNTmmGCFZ-39">
          <mxGeometry x="30" width="220" height="30" as="geometry">
            <mxRectangle width="220" height="30" as="alternateBounds" />
          </mxGeometry>
        </mxCell>
        <mxCell id="GWjoIAEa0WmcNTmmGCFZ-42" value="" style="shape=partialRectangle;collapsible=0;dropTarget=0;pointerEvents=0;fillColor=#dae8fc;points=[[0,0.5],[1,0.5]];portConstraint=eastwest;top=0;left=0;right=0;bottom=0;fontSize=14;verticalAlign=middle;align=left;strokeColor=#6c8ebf;" vertex="1" parent="GWjoIAEa0WmcNTmmGCFZ-32">
          <mxGeometry y="150" width="250" height="30" as="geometry" />
        </mxCell>
        <mxCell id="GWjoIAEa0WmcNTmmGCFZ-43" value="" style="shape=partialRectangle;overflow=hidden;connectable=0;fillColor=#dae8fc;top=0;left=0;bottom=0;right=0;fontSize=14;verticalAlign=middle;align=left;strokeColor=#6c8ebf;" vertex="1" parent="GWjoIAEa0WmcNTmmGCFZ-42">
          <mxGeometry width="30" height="30" as="geometry">
            <mxRectangle width="30" height="30" as="alternateBounds" />
          </mxGeometry>
        </mxCell>
        <mxCell id="GWjoIAEa0WmcNTmmGCFZ-44" value="Title" style="shape=partialRectangle;overflow=hidden;connectable=0;fillColor=#dae8fc;top=0;left=0;bottom=0;right=0;align=left;spacingLeft=6;fontSize=14;verticalAlign=middle;strokeColor=#6c8ebf;" vertex="1" parent="GWjoIAEa0WmcNTmmGCFZ-42">
          <mxGeometry x="30" width="220" height="30" as="geometry">
            <mxRectangle width="220" height="30" as="alternateBounds" />
          </mxGeometry>
        </mxCell>
        <mxCell id="GWjoIAEa0WmcNTmmGCFZ-45" value="" style="shape=partialRectangle;collapsible=0;dropTarget=0;pointerEvents=0;fillColor=#dae8fc;points=[[0,0.5],[1,0.5]];portConstraint=eastwest;top=0;left=0;right=0;bottom=0;fontSize=14;verticalAlign=middle;align=left;strokeColor=#6c8ebf;" vertex="1" parent="GWjoIAEa0WmcNTmmGCFZ-32">
          <mxGeometry y="180" width="250" height="30" as="geometry" />
        </mxCell>
        <mxCell id="GWjoIAEa0WmcNTmmGCFZ-46" value="" style="shape=partialRectangle;overflow=hidden;connectable=0;fillColor=#dae8fc;top=0;left=0;bottom=0;right=0;fontSize=14;verticalAlign=middle;align=left;strokeColor=#6c8ebf;" vertex="1" parent="GWjoIAEa0WmcNTmmGCFZ-45">
          <mxGeometry width="30" height="30" as="geometry">
            <mxRectangle width="30" height="30" as="alternateBounds" />
          </mxGeometry>
        </mxCell>
        <mxCell id="GWjoIAEa0WmcNTmmGCFZ-47" value="HireDate" style="shape=partialRectangle;overflow=hidden;connectable=0;fillColor=#dae8fc;top=0;left=0;bottom=0;right=0;align=left;spacingLeft=6;fontSize=14;verticalAlign=middle;strokeColor=#6c8ebf;" vertex="1" parent="GWjoIAEa0WmcNTmmGCFZ-45">
          <mxGeometry x="30" width="220" height="30" as="geometry">
            <mxRectangle width="220" height="30" as="alternateBounds" />
          </mxGeometry>
        </mxCell>
        <mxCell id="GWjoIAEa0WmcNTmmGCFZ-48" value="" style="shape=partialRectangle;collapsible=0;dropTarget=0;pointerEvents=0;fillColor=#dae8fc;points=[[0,0.5],[1,0.5]];portConstraint=eastwest;top=0;left=0;right=0;bottom=0;fontSize=14;verticalAlign=middle;align=left;strokeColor=#6c8ebf;" vertex="1" parent="GWjoIAEa0WmcNTmmGCFZ-32">
          <mxGeometry y="210" width="250" height="30" as="geometry" />
        </mxCell>
        <mxCell id="GWjoIAEa0WmcNTmmGCFZ-49" value="" style="shape=partialRectangle;overflow=hidden;connectable=0;fillColor=#dae8fc;top=0;left=0;bottom=0;right=0;fontSize=14;verticalAlign=middle;align=left;strokeColor=#6c8ebf;" vertex="1" parent="GWjoIAEa0WmcNTmmGCFZ-48">
          <mxGeometry width="30" height="30" as="geometry">
            <mxRectangle width="30" height="30" as="alternateBounds" />
          </mxGeometry>
        </mxCell>
        <mxCell id="GWjoIAEa0WmcNTmmGCFZ-50" value="BirthDate" style="shape=partialRectangle;overflow=hidden;connectable=0;fillColor=#dae8fc;top=0;left=0;bottom=0;right=0;align=left;spacingLeft=6;fontSize=14;verticalAlign=middle;strokeColor=#6c8ebf;" vertex="1" parent="GWjoIAEa0WmcNTmmGCFZ-48">
          <mxGeometry x="30" width="220" height="30" as="geometry">
            <mxRectangle width="220" height="30" as="alternateBounds" />
          </mxGeometry>
        </mxCell>
        <mxCell id="GWjoIAEa0WmcNTmmGCFZ-51" value="" style="shape=partialRectangle;collapsible=0;dropTarget=0;pointerEvents=0;fillColor=#dae8fc;points=[[0,0.5],[1,0.5]];portConstraint=eastwest;top=0;left=0;right=0;bottom=0;fontSize=14;verticalAlign=middle;align=left;strokeColor=#6c8ebf;" vertex="1" parent="GWjoIAEa0WmcNTmmGCFZ-32">
          <mxGeometry y="240" width="250" height="30" as="geometry" />
        </mxCell>
        <mxCell id="GWjoIAEa0WmcNTmmGCFZ-52" value="" style="shape=partialRectangle;overflow=hidden;connectable=0;fillColor=#dae8fc;top=0;left=0;bottom=0;right=0;fontSize=14;verticalAlign=middle;align=left;strokeColor=#6c8ebf;" vertex="1" parent="GWjoIAEa0WmcNTmmGCFZ-51">
          <mxGeometry width="30" height="30" as="geometry">
            <mxRectangle width="30" height="30" as="alternateBounds" />
          </mxGeometry>
        </mxCell>
        <mxCell id="GWjoIAEa0WmcNTmmGCFZ-53" value="TitleOfCourtesy" style="shape=partialRectangle;overflow=hidden;connectable=0;fillColor=#dae8fc;top=0;left=0;bottom=0;right=0;align=left;spacingLeft=6;fontSize=14;verticalAlign=middle;strokeColor=#6c8ebf;" vertex="1" parent="GWjoIAEa0WmcNTmmGCFZ-51">
          <mxGeometry x="30" width="220" height="30" as="geometry">
            <mxRectangle width="220" height="30" as="alternateBounds" />
          </mxGeometry>
        </mxCell>
        <mxCell id="GWjoIAEa0WmcNTmmGCFZ-54" value="" style="shape=partialRectangle;collapsible=0;dropTarget=0;pointerEvents=0;fillColor=#dae8fc;points=[[0,0.5],[1,0.5]];portConstraint=eastwest;top=0;left=0;right=0;bottom=0;fontSize=14;verticalAlign=middle;align=left;strokeColor=#6c8ebf;" vertex="1" parent="GWjoIAEa0WmcNTmmGCFZ-32">
          <mxGeometry y="270" width="250" height="30" as="geometry" />
        </mxCell>
        <mxCell id="GWjoIAEa0WmcNTmmGCFZ-55" value="" style="shape=partialRectangle;overflow=hidden;connectable=0;fillColor=#dae8fc;top=0;left=0;bottom=0;right=0;fontSize=14;verticalAlign=middle;align=left;strokeColor=#6c8ebf;" vertex="1" parent="GWjoIAEa0WmcNTmmGCFZ-54">
          <mxGeometry width="30" height="30" as="geometry">
            <mxRectangle width="30" height="30" as="alternateBounds" />
          </mxGeometry>
        </mxCell>
        <mxCell id="GWjoIAEa0WmcNTmmGCFZ-56" value="City" style="shape=partialRectangle;overflow=hidden;connectable=0;fillColor=#dae8fc;top=0;left=0;bottom=0;right=0;align=left;spacingLeft=6;fontSize=14;verticalAlign=middle;strokeColor=#6c8ebf;" vertex="1" parent="GWjoIAEa0WmcNTmmGCFZ-54">
          <mxGeometry x="30" width="220" height="30" as="geometry">
            <mxRectangle width="220" height="30" as="alternateBounds" />
          </mxGeometry>
        </mxCell>
        <mxCell id="GWjoIAEa0WmcNTmmGCFZ-57" value="" style="shape=partialRectangle;collapsible=0;dropTarget=0;pointerEvents=0;fillColor=#dae8fc;points=[[0,0.5],[1,0.5]];portConstraint=eastwest;top=0;left=0;right=0;bottom=0;fontSize=14;verticalAlign=middle;align=left;strokeColor=#6c8ebf;" vertex="1" parent="GWjoIAEa0WmcNTmmGCFZ-32">
          <mxGeometry y="300" width="250" height="30" as="geometry" />
        </mxCell>
        <mxCell id="GWjoIAEa0WmcNTmmGCFZ-58" value="" style="shape=partialRectangle;overflow=hidden;connectable=0;fillColor=#dae8fc;top=0;left=0;bottom=0;right=0;fontSize=14;verticalAlign=middle;align=left;strokeColor=#6c8ebf;" vertex="1" parent="GWjoIAEa0WmcNTmmGCFZ-57">
          <mxGeometry width="30" height="30" as="geometry">
            <mxRectangle width="30" height="30" as="alternateBounds" />
          </mxGeometry>
        </mxCell>
        <mxCell id="GWjoIAEa0WmcNTmmGCFZ-59" value="Country" style="shape=partialRectangle;overflow=hidden;connectable=0;fillColor=#dae8fc;top=0;left=0;bottom=0;right=0;align=left;spacingLeft=6;fontSize=14;verticalAlign=middle;strokeColor=#6c8ebf;" vertex="1" parent="GWjoIAEa0WmcNTmmGCFZ-57">
          <mxGeometry x="30" width="220" height="30" as="geometry">
            <mxRectangle width="220" height="30" as="alternateBounds" />
          </mxGeometry>
        </mxCell>
        <mxCell id="GWjoIAEa0WmcNTmmGCFZ-60" value="" style="shape=partialRectangle;collapsible=0;dropTarget=0;pointerEvents=0;fillColor=#dae8fc;points=[[0,0.5],[1,0.5]];portConstraint=eastwest;top=0;left=0;right=0;bottom=0;fontSize=14;verticalAlign=middle;align=left;strokeColor=#6c8ebf;" vertex="1" parent="GWjoIAEa0WmcNTmmGCFZ-32">
          <mxGeometry y="330" width="250" height="30" as="geometry" />
        </mxCell>
        <mxCell id="GWjoIAEa0WmcNTmmGCFZ-61" value="" style="shape=partialRectangle;overflow=hidden;connectable=0;fillColor=#dae8fc;top=0;left=0;bottom=0;right=0;fontSize=14;verticalAlign=middle;align=left;strokeColor=#6c8ebf;" vertex="1" parent="GWjoIAEa0WmcNTmmGCFZ-60">
          <mxGeometry width="30" height="30" as="geometry">
            <mxRectangle width="30" height="30" as="alternateBounds" />
          </mxGeometry>
        </mxCell>
        <mxCell id="GWjoIAEa0WmcNTmmGCFZ-62" value="Region" style="shape=partialRectangle;overflow=hidden;connectable=0;fillColor=#dae8fc;top=0;left=0;bottom=0;right=0;align=left;spacingLeft=6;fontSize=14;verticalAlign=middle;strokeColor=#6c8ebf;" vertex="1" parent="GWjoIAEa0WmcNTmmGCFZ-60">
          <mxGeometry x="30" width="220" height="30" as="geometry">
            <mxRectangle width="220" height="30" as="alternateBounds" />
          </mxGeometry>
        </mxCell>
        <mxCell id="GWjoIAEa0WmcNTmmGCFZ-63" value="" style="shape=partialRectangle;collapsible=0;dropTarget=0;pointerEvents=0;fillColor=#dae8fc;points=[[0,0.5],[1,0.5]];portConstraint=eastwest;top=0;left=0;right=0;bottom=0;fontSize=14;verticalAlign=middle;align=left;strokeColor=#6c8ebf;" vertex="1" parent="GWjoIAEa0WmcNTmmGCFZ-32">
          <mxGeometry y="360" width="250" height="30" as="geometry" />
        </mxCell>
        <mxCell id="GWjoIAEa0WmcNTmmGCFZ-64" value="" style="shape=partialRectangle;overflow=hidden;connectable=0;fillColor=#dae8fc;top=0;left=0;bottom=0;right=0;fontSize=14;verticalAlign=middle;align=left;strokeColor=#6c8ebf;" vertex="1" parent="GWjoIAEa0WmcNTmmGCFZ-63">
          <mxGeometry width="30" height="30" as="geometry">
            <mxRectangle width="30" height="30" as="alternateBounds" />
          </mxGeometry>
        </mxCell>
        <mxCell id="GWjoIAEa0WmcNTmmGCFZ-65" value="Address" style="shape=partialRectangle;overflow=hidden;connectable=0;fillColor=#dae8fc;top=0;left=0;bottom=0;right=0;align=left;spacingLeft=6;fontSize=14;verticalAlign=middle;strokeColor=#6c8ebf;" vertex="1" parent="GWjoIAEa0WmcNTmmGCFZ-63">
          <mxGeometry x="30" width="220" height="30" as="geometry">
            <mxRectangle width="220" height="30" as="alternateBounds" />
          </mxGeometry>
        </mxCell>
        <mxCell id="GWjoIAEa0WmcNTmmGCFZ-66" value="" style="shape=partialRectangle;collapsible=0;dropTarget=0;pointerEvents=0;fillColor=#dae8fc;points=[[0,0.5],[1,0.5]];portConstraint=eastwest;top=0;left=0;right=0;bottom=0;fontSize=14;verticalAlign=middle;align=left;strokeColor=#6c8ebf;" vertex="1" parent="GWjoIAEa0WmcNTmmGCFZ-32">
          <mxGeometry y="390" width="250" height="30" as="geometry" />
        </mxCell>
        <mxCell id="GWjoIAEa0WmcNTmmGCFZ-67" value="" style="shape=partialRectangle;overflow=hidden;connectable=0;fillColor=#dae8fc;top=0;left=0;bottom=0;right=0;fontSize=14;verticalAlign=middle;align=left;strokeColor=#6c8ebf;" vertex="1" parent="GWjoIAEa0WmcNTmmGCFZ-66">
          <mxGeometry width="30" height="30" as="geometry">
            <mxRectangle width="30" height="30" as="alternateBounds" />
          </mxGeometry>
        </mxCell>
        <mxCell id="GWjoIAEa0WmcNTmmGCFZ-68" value="PostalCode" style="shape=partialRectangle;overflow=hidden;connectable=0;fillColor=#dae8fc;top=0;left=0;bottom=0;right=0;align=left;spacingLeft=6;fontSize=14;verticalAlign=middle;strokeColor=#6c8ebf;" vertex="1" parent="GWjoIAEa0WmcNTmmGCFZ-66">
          <mxGeometry x="30" width="220" height="30" as="geometry">
            <mxRectangle width="220" height="30" as="alternateBounds" />
          </mxGeometry>
        </mxCell>
        <mxCell id="GWjoIAEa0WmcNTmmGCFZ-69" value="" style="shape=partialRectangle;collapsible=0;dropTarget=0;pointerEvents=0;fillColor=#dae8fc;points=[[0,0.5],[1,0.5]];portConstraint=eastwest;top=0;left=0;right=0;bottom=0;fontSize=14;verticalAlign=middle;align=left;strokeColor=#6c8ebf;" vertex="1" parent="GWjoIAEa0WmcNTmmGCFZ-32">
          <mxGeometry y="420" width="250" height="30" as="geometry" />
        </mxCell>
        <mxCell id="GWjoIAEa0WmcNTmmGCFZ-70" value="" style="shape=partialRectangle;overflow=hidden;connectable=0;fillColor=#dae8fc;top=0;left=0;bottom=0;right=0;fontSize=14;verticalAlign=middle;align=left;strokeColor=#6c8ebf;" vertex="1" parent="GWjoIAEa0WmcNTmmGCFZ-69">
          <mxGeometry width="30" height="30" as="geometry">
            <mxRectangle width="30" height="30" as="alternateBounds" />
          </mxGeometry>
        </mxCell>
        <mxCell id="GWjoIAEa0WmcNTmmGCFZ-71" value="Reports To" style="shape=partialRectangle;overflow=hidden;connectable=0;fillColor=#dae8fc;top=0;left=0;bottom=0;right=0;align=left;spacingLeft=6;fontSize=14;verticalAlign=middle;strokeColor=#6c8ebf;" vertex="1" parent="GWjoIAEa0WmcNTmmGCFZ-69">
          <mxGeometry x="30" width="220" height="30" as="geometry">
            <mxRectangle width="220" height="30" as="alternateBounds" />
          </mxGeometry>
        </mxCell>
        <mxCell id="GWjoIAEa0WmcNTmmGCFZ-72" value="" style="shape=partialRectangle;collapsible=0;dropTarget=0;pointerEvents=0;fillColor=#dae8fc;points=[[0,0.5],[1,0.5]];portConstraint=eastwest;top=0;left=0;right=0;bottom=0;fontSize=14;verticalAlign=middle;align=left;strokeColor=#6c8ebf;" vertex="1" parent="GWjoIAEa0WmcNTmmGCFZ-32">
          <mxGeometry y="450" width="250" height="30" as="geometry" />
        </mxCell>
        <mxCell id="GWjoIAEa0WmcNTmmGCFZ-73" value="" style="shape=partialRectangle;overflow=hidden;connectable=0;fillColor=#dae8fc;top=0;left=0;bottom=0;right=0;fontSize=14;verticalAlign=middle;align=left;strokeColor=#6c8ebf;" vertex="1" parent="GWjoIAEa0WmcNTmmGCFZ-72">
          <mxGeometry width="30" height="30" as="geometry">
            <mxRectangle width="30" height="30" as="alternateBounds" />
          </mxGeometry>
        </mxCell>
        <mxCell id="GWjoIAEa0WmcNTmmGCFZ-74" value="HomePhone" style="shape=partialRectangle;overflow=hidden;connectable=0;fillColor=#dae8fc;top=0;left=0;bottom=0;right=0;align=left;spacingLeft=6;fontSize=14;verticalAlign=middle;strokeColor=#6c8ebf;" vertex="1" parent="GWjoIAEa0WmcNTmmGCFZ-72">
          <mxGeometry x="30" width="220" height="30" as="geometry">
            <mxRectangle width="220" height="30" as="alternateBounds" />
          </mxGeometry>
        </mxCell>
        <mxCell id="GWjoIAEa0WmcNTmmGCFZ-75" value="" style="shape=partialRectangle;collapsible=0;dropTarget=0;pointerEvents=0;fillColor=#dae8fc;points=[[0,0.5],[1,0.5]];portConstraint=eastwest;top=0;left=0;right=0;bottom=0;fontSize=14;verticalAlign=middle;align=left;strokeColor=#6c8ebf;" vertex="1" parent="GWjoIAEa0WmcNTmmGCFZ-32">
          <mxGeometry y="480" width="250" height="31" as="geometry" />
        </mxCell>
        <mxCell id="GWjoIAEa0WmcNTmmGCFZ-76" value="" style="shape=partialRectangle;overflow=hidden;connectable=0;fillColor=#dae8fc;top=0;left=0;bottom=0;right=0;fontSize=14;verticalAlign=middle;align=left;strokeColor=#6c8ebf;" vertex="1" parent="GWjoIAEa0WmcNTmmGCFZ-75">
          <mxGeometry width="30" height="31" as="geometry">
            <mxRectangle width="30" height="31" as="alternateBounds" />
          </mxGeometry>
        </mxCell>
        <mxCell id="GWjoIAEa0WmcNTmmGCFZ-77" value="Extension" style="shape=partialRectangle;overflow=hidden;connectable=0;fillColor=#dae8fc;top=0;left=0;bottom=0;right=0;align=left;spacingLeft=6;fontSize=14;verticalAlign=middle;strokeColor=#6c8ebf;" vertex="1" parent="GWjoIAEa0WmcNTmmGCFZ-75">
          <mxGeometry x="30" width="220" height="31" as="geometry">
            <mxRectangle width="220" height="31" as="alternateBounds" />
          </mxGeometry>
        </mxCell>
        <mxCell id="GWjoIAEa0WmcNTmmGCFZ-78" value="" style="shape=partialRectangle;collapsible=0;dropTarget=0;pointerEvents=0;fillColor=#dae8fc;points=[[0,0.5],[1,0.5]];portConstraint=eastwest;top=0;left=0;right=0;bottom=0;fontSize=14;verticalAlign=middle;align=left;strokeColor=#6c8ebf;" vertex="1" parent="GWjoIAEa0WmcNTmmGCFZ-32">
          <mxGeometry y="511" width="250" height="30" as="geometry" />
        </mxCell>
        <mxCell id="GWjoIAEa0WmcNTmmGCFZ-79" value="" style="shape=partialRectangle;overflow=hidden;connectable=0;fillColor=#dae8fc;top=0;left=0;bottom=0;right=0;fontSize=14;verticalAlign=middle;align=left;strokeColor=#6c8ebf;" vertex="1" parent="GWjoIAEa0WmcNTmmGCFZ-78">
          <mxGeometry width="30" height="30" as="geometry">
            <mxRectangle width="30" height="30" as="alternateBounds" />
          </mxGeometry>
        </mxCell>
        <mxCell id="GWjoIAEa0WmcNTmmGCFZ-80" value="Photo" style="shape=partialRectangle;overflow=hidden;connectable=0;fillColor=#dae8fc;top=0;left=0;bottom=0;right=0;align=left;spacingLeft=6;fontSize=14;verticalAlign=middle;strokeColor=#6c8ebf;" vertex="1" parent="GWjoIAEa0WmcNTmmGCFZ-78">
          <mxGeometry x="30" width="220" height="30" as="geometry">
            <mxRectangle width="220" height="30" as="alternateBounds" />
          </mxGeometry>
        </mxCell>
        <mxCell id="GWjoIAEa0WmcNTmmGCFZ-81" value="" style="shape=partialRectangle;collapsible=0;dropTarget=0;pointerEvents=0;fillColor=#dae8fc;points=[[0,0.5],[1,0.5]];portConstraint=eastwest;top=0;left=0;right=0;bottom=0;fontSize=14;verticalAlign=middle;align=left;strokeColor=#6c8ebf;" vertex="1" parent="GWjoIAEa0WmcNTmmGCFZ-32">
          <mxGeometry y="541" width="250" height="30" as="geometry" />
        </mxCell>
        <mxCell id="GWjoIAEa0WmcNTmmGCFZ-82" value="" style="shape=partialRectangle;overflow=hidden;connectable=0;fillColor=#dae8fc;top=0;left=0;bottom=0;right=0;fontSize=14;verticalAlign=middle;align=left;strokeColor=#6c8ebf;" vertex="1" parent="GWjoIAEa0WmcNTmmGCFZ-81">
          <mxGeometry width="30" height="30" as="geometry">
            <mxRectangle width="30" height="30" as="alternateBounds" />
          </mxGeometry>
        </mxCell>
        <mxCell id="GWjoIAEa0WmcNTmmGCFZ-83" value="Notes" style="shape=partialRectangle;overflow=hidden;connectable=0;fillColor=#dae8fc;top=0;left=0;bottom=0;right=0;align=left;spacingLeft=6;fontSize=14;verticalAlign=middle;strokeColor=#6c8ebf;" vertex="1" parent="GWjoIAEa0WmcNTmmGCFZ-81">
          <mxGeometry x="30" width="220" height="30" as="geometry">
            <mxRectangle width="220" height="30" as="alternateBounds" />
          </mxGeometry>
        </mxCell>
        <mxCell id="GWjoIAEa0WmcNTmmGCFZ-84" value="" style="shape=partialRectangle;collapsible=0;dropTarget=0;pointerEvents=0;fillColor=#dae8fc;points=[[0,0.5],[1,0.5]];portConstraint=eastwest;top=0;left=0;right=0;bottom=0;fontSize=14;verticalAlign=middle;align=left;strokeColor=#6c8ebf;" vertex="1" parent="GWjoIAEa0WmcNTmmGCFZ-32">
          <mxGeometry y="571" width="250" height="30" as="geometry" />
        </mxCell>
        <mxCell id="GWjoIAEa0WmcNTmmGCFZ-85" value="" style="shape=partialRectangle;overflow=hidden;connectable=0;fillColor=#dae8fc;top=0;left=0;bottom=0;right=0;fontSize=14;verticalAlign=middle;align=left;strokeColor=#6c8ebf;" vertex="1" parent="GWjoIAEa0WmcNTmmGCFZ-84">
          <mxGeometry width="30" height="30" as="geometry">
            <mxRectangle width="30" height="30" as="alternateBounds" />
          </mxGeometry>
        </mxCell>
        <mxCell id="GWjoIAEa0WmcNTmmGCFZ-86" value="PhotoPath" style="shape=partialRectangle;overflow=hidden;connectable=0;fillColor=#dae8fc;top=0;left=0;bottom=0;right=0;align=left;spacingLeft=6;fontSize=14;verticalAlign=middle;strokeColor=#6c8ebf;" vertex="1" parent="GWjoIAEa0WmcNTmmGCFZ-84">
          <mxGeometry x="30" width="220" height="30" as="geometry">
            <mxRectangle width="220" height="30" as="alternateBounds" />
          </mxGeometry>
        </mxCell>
        <mxCell id="GWjoIAEa0WmcNTmmGCFZ-87" value="Customers_Dim" style="shape=table;startSize=30;container=1;collapsible=1;childLayout=tableLayout;fixedRows=1;rowLines=0;fontStyle=1;align=center;resizeLast=1;fontSize=14;fillColor=#dae8fc;strokeColor=#6c8ebf;" vertex="1" parent="1">
          <mxGeometry x="-1411" y="67.33000000000001" width="250" height="390" as="geometry" />
        </mxCell>
        <mxCell id="GWjoIAEa0WmcNTmmGCFZ-88" value="" style="shape=partialRectangle;collapsible=0;dropTarget=0;pointerEvents=0;fillColor=#dae8fc;points=[[0,0.5],[1,0.5]];portConstraint=eastwest;top=0;left=0;right=0;bottom=1;fontSize=14;strokeColor=#6c8ebf;" vertex="1" parent="GWjoIAEa0WmcNTmmGCFZ-87">
          <mxGeometry y="30" width="250" height="30" as="geometry" />
        </mxCell>
        <mxCell id="GWjoIAEa0WmcNTmmGCFZ-89" value="PK" style="shape=partialRectangle;overflow=hidden;connectable=0;fillColor=#dae8fc;top=0;left=0;bottom=0;right=0;fontStyle=1;fontSize=14;strokeColor=#6c8ebf;" vertex="1" parent="GWjoIAEa0WmcNTmmGCFZ-88">
          <mxGeometry width="30" height="30" as="geometry">
            <mxRectangle width="30" height="30" as="alternateBounds" />
          </mxGeometry>
        </mxCell>
        <mxCell id="GWjoIAEa0WmcNTmmGCFZ-90" value="Customer_SK" style="shape=partialRectangle;overflow=hidden;connectable=0;fillColor=#dae8fc;top=0;left=0;bottom=0;right=0;align=left;spacingLeft=6;fontStyle=5;fontSize=14;strokeColor=#6c8ebf;" vertex="1" parent="GWjoIAEa0WmcNTmmGCFZ-88">
          <mxGeometry x="30" width="220" height="30" as="geometry">
            <mxRectangle width="220" height="30" as="alternateBounds" />
          </mxGeometry>
        </mxCell>
        <mxCell id="GWjoIAEa0WmcNTmmGCFZ-91" value="" style="shape=partialRectangle;collapsible=0;dropTarget=0;pointerEvents=0;fillColor=#dae8fc;points=[[0,0.5],[1,0.5]];portConstraint=eastwest;top=0;left=0;right=0;bottom=0;fontSize=14;strokeColor=#6c8ebf;" vertex="1" parent="GWjoIAEa0WmcNTmmGCFZ-87">
          <mxGeometry y="60" width="250" height="30" as="geometry" />
        </mxCell>
        <mxCell id="GWjoIAEa0WmcNTmmGCFZ-92" value="FK" style="shape=partialRectangle;overflow=hidden;connectable=0;fillColor=#dae8fc;top=0;left=0;bottom=0;right=0;fontSize=14;strokeColor=#6c8ebf;" vertex="1" parent="GWjoIAEa0WmcNTmmGCFZ-91">
          <mxGeometry width="30" height="30" as="geometry">
            <mxRectangle width="30" height="30" as="alternateBounds" />
          </mxGeometry>
        </mxCell>
        <mxCell id="GWjoIAEa0WmcNTmmGCFZ-93" value="CustomerID" style="shape=partialRectangle;overflow=hidden;connectable=0;fillColor=#dae8fc;top=0;left=0;bottom=0;right=0;align=left;spacingLeft=6;fontSize=14;strokeColor=#6c8ebf;" vertex="1" parent="GWjoIAEa0WmcNTmmGCFZ-91">
          <mxGeometry x="30" width="220" height="30" as="geometry">
            <mxRectangle width="220" height="30" as="alternateBounds" />
          </mxGeometry>
        </mxCell>
        <mxCell id="GWjoIAEa0WmcNTmmGCFZ-94" value="" style="shape=partialRectangle;collapsible=0;dropTarget=0;pointerEvents=0;fillColor=#dae8fc;points=[[0,0.5],[1,0.5]];portConstraint=eastwest;top=0;left=0;right=0;bottom=0;fontSize=14;strokeColor=#6c8ebf;" vertex="1" parent="GWjoIAEa0WmcNTmmGCFZ-87">
          <mxGeometry y="90" width="250" height="30" as="geometry" />
        </mxCell>
        <mxCell id="GWjoIAEa0WmcNTmmGCFZ-95" value="" style="shape=partialRectangle;overflow=hidden;connectable=0;fillColor=#dae8fc;top=0;left=0;bottom=0;right=0;fontSize=14;strokeColor=#6c8ebf;" vertex="1" parent="GWjoIAEa0WmcNTmmGCFZ-94">
          <mxGeometry width="30" height="30" as="geometry">
            <mxRectangle width="30" height="30" as="alternateBounds" />
          </mxGeometry>
        </mxCell>
        <mxCell id="GWjoIAEa0WmcNTmmGCFZ-96" value="ContactName" style="shape=partialRectangle;overflow=hidden;connectable=0;fillColor=#dae8fc;top=0;left=0;bottom=0;right=0;align=left;spacingLeft=6;fontSize=14;strokeColor=#6c8ebf;" vertex="1" parent="GWjoIAEa0WmcNTmmGCFZ-94">
          <mxGeometry x="30" width="220" height="30" as="geometry">
            <mxRectangle width="220" height="30" as="alternateBounds" />
          </mxGeometry>
        </mxCell>
        <mxCell id="GWjoIAEa0WmcNTmmGCFZ-97" value="" style="shape=partialRectangle;collapsible=0;dropTarget=0;pointerEvents=0;fillColor=#dae8fc;points=[[0,0.5],[1,0.5]];portConstraint=eastwest;top=0;left=0;right=0;bottom=0;fontSize=14;strokeColor=#6c8ebf;" vertex="1" parent="GWjoIAEa0WmcNTmmGCFZ-87">
          <mxGeometry y="120" width="250" height="30" as="geometry" />
        </mxCell>
        <mxCell id="GWjoIAEa0WmcNTmmGCFZ-98" value="" style="shape=partialRectangle;overflow=hidden;connectable=0;fillColor=#dae8fc;top=0;left=0;bottom=0;right=0;fontSize=14;strokeColor=#6c8ebf;" vertex="1" parent="GWjoIAEa0WmcNTmmGCFZ-97">
          <mxGeometry width="30" height="30" as="geometry">
            <mxRectangle width="30" height="30" as="alternateBounds" />
          </mxGeometry>
        </mxCell>
        <mxCell id="GWjoIAEa0WmcNTmmGCFZ-99" value="ContactTitle" style="shape=partialRectangle;overflow=hidden;connectable=0;fillColor=#dae8fc;top=0;left=0;bottom=0;right=0;align=left;spacingLeft=6;fontSize=14;strokeColor=#6c8ebf;" vertex="1" parent="GWjoIAEa0WmcNTmmGCFZ-97">
          <mxGeometry x="30" width="220" height="30" as="geometry">
            <mxRectangle width="220" height="30" as="alternateBounds" />
          </mxGeometry>
        </mxCell>
        <mxCell id="GWjoIAEa0WmcNTmmGCFZ-100" value="" style="shape=partialRectangle;collapsible=0;dropTarget=0;pointerEvents=0;fillColor=#dae8fc;points=[[0,0.5],[1,0.5]];portConstraint=eastwest;top=0;left=0;right=0;bottom=0;fontSize=14;strokeColor=#6c8ebf;" vertex="1" parent="GWjoIAEa0WmcNTmmGCFZ-87">
          <mxGeometry y="150" width="250" height="30" as="geometry" />
        </mxCell>
        <mxCell id="GWjoIAEa0WmcNTmmGCFZ-101" value="" style="shape=partialRectangle;overflow=hidden;connectable=0;fillColor=#dae8fc;top=0;left=0;bottom=0;right=0;fontSize=14;strokeColor=#6c8ebf;" vertex="1" parent="GWjoIAEa0WmcNTmmGCFZ-100">
          <mxGeometry width="30" height="30" as="geometry">
            <mxRectangle width="30" height="30" as="alternateBounds" />
          </mxGeometry>
        </mxCell>
        <mxCell id="GWjoIAEa0WmcNTmmGCFZ-102" value="CompanyName" style="shape=partialRectangle;overflow=hidden;connectable=0;fillColor=#dae8fc;top=0;left=0;bottom=0;right=0;align=left;spacingLeft=6;fontSize=14;strokeColor=#6c8ebf;" vertex="1" parent="GWjoIAEa0WmcNTmmGCFZ-100">
          <mxGeometry x="30" width="220" height="30" as="geometry">
            <mxRectangle width="220" height="30" as="alternateBounds" />
          </mxGeometry>
        </mxCell>
        <mxCell id="GWjoIAEa0WmcNTmmGCFZ-103" value="" style="shape=partialRectangle;collapsible=0;dropTarget=0;pointerEvents=0;fillColor=#dae8fc;points=[[0,0.5],[1,0.5]];portConstraint=eastwest;top=0;left=0;right=0;bottom=0;fontSize=14;strokeColor=#6c8ebf;" vertex="1" parent="GWjoIAEa0WmcNTmmGCFZ-87">
          <mxGeometry y="180" width="250" height="30" as="geometry" />
        </mxCell>
        <mxCell id="GWjoIAEa0WmcNTmmGCFZ-104" value="" style="shape=partialRectangle;overflow=hidden;connectable=0;fillColor=#dae8fc;top=0;left=0;bottom=0;right=0;fontSize=14;strokeColor=#6c8ebf;" vertex="1" parent="GWjoIAEa0WmcNTmmGCFZ-103">
          <mxGeometry width="30" height="30" as="geometry">
            <mxRectangle width="30" height="30" as="alternateBounds" />
          </mxGeometry>
        </mxCell>
        <mxCell id="GWjoIAEa0WmcNTmmGCFZ-105" value="PostalCode" style="shape=partialRectangle;overflow=hidden;connectable=0;fillColor=#dae8fc;top=0;left=0;bottom=0;right=0;align=left;spacingLeft=6;fontSize=14;strokeColor=#6c8ebf;" vertex="1" parent="GWjoIAEa0WmcNTmmGCFZ-103">
          <mxGeometry x="30" width="220" height="30" as="geometry">
            <mxRectangle width="220" height="30" as="alternateBounds" />
          </mxGeometry>
        </mxCell>
        <mxCell id="GWjoIAEa0WmcNTmmGCFZ-106" value="" style="shape=partialRectangle;collapsible=0;dropTarget=0;pointerEvents=0;fillColor=#dae8fc;points=[[0,0.5],[1,0.5]];portConstraint=eastwest;top=0;left=0;right=0;bottom=0;fontSize=14;strokeColor=#6c8ebf;" vertex="1" parent="GWjoIAEa0WmcNTmmGCFZ-87">
          <mxGeometry y="210" width="250" height="30" as="geometry" />
        </mxCell>
        <mxCell id="GWjoIAEa0WmcNTmmGCFZ-107" value="" style="shape=partialRectangle;overflow=hidden;connectable=0;fillColor=#dae8fc;top=0;left=0;bottom=0;right=0;fontSize=14;strokeColor=#6c8ebf;" vertex="1" parent="GWjoIAEa0WmcNTmmGCFZ-106">
          <mxGeometry width="30" height="30" as="geometry">
            <mxRectangle width="30" height="30" as="alternateBounds" />
          </mxGeometry>
        </mxCell>
        <mxCell id="GWjoIAEa0WmcNTmmGCFZ-108" value="Region" style="shape=partialRectangle;overflow=hidden;connectable=0;fillColor=#dae8fc;top=0;left=0;bottom=0;right=0;align=left;spacingLeft=6;fontSize=14;strokeColor=#6c8ebf;" vertex="1" parent="GWjoIAEa0WmcNTmmGCFZ-106">
          <mxGeometry x="30" width="220" height="30" as="geometry">
            <mxRectangle width="220" height="30" as="alternateBounds" />
          </mxGeometry>
        </mxCell>
        <mxCell id="GWjoIAEa0WmcNTmmGCFZ-109" value="" style="shape=partialRectangle;collapsible=0;dropTarget=0;pointerEvents=0;fillColor=#dae8fc;points=[[0,0.5],[1,0.5]];portConstraint=eastwest;top=0;left=0;right=0;bottom=0;fontSize=14;strokeColor=#6c8ebf;" vertex="1" parent="GWjoIAEa0WmcNTmmGCFZ-87">
          <mxGeometry y="240" width="250" height="30" as="geometry" />
        </mxCell>
        <mxCell id="GWjoIAEa0WmcNTmmGCFZ-110" value="" style="shape=partialRectangle;overflow=hidden;connectable=0;fillColor=#dae8fc;top=0;left=0;bottom=0;right=0;fontSize=14;strokeColor=#6c8ebf;" vertex="1" parent="GWjoIAEa0WmcNTmmGCFZ-109">
          <mxGeometry width="30" height="30" as="geometry">
            <mxRectangle width="30" height="30" as="alternateBounds" />
          </mxGeometry>
        </mxCell>
        <mxCell id="GWjoIAEa0WmcNTmmGCFZ-111" value="Country" style="shape=partialRectangle;overflow=hidden;connectable=0;fillColor=#dae8fc;top=0;left=0;bottom=0;right=0;align=left;spacingLeft=6;fontSize=14;strokeColor=#6c8ebf;" vertex="1" parent="GWjoIAEa0WmcNTmmGCFZ-109">
          <mxGeometry x="30" width="220" height="30" as="geometry">
            <mxRectangle width="220" height="30" as="alternateBounds" />
          </mxGeometry>
        </mxCell>
        <mxCell id="GWjoIAEa0WmcNTmmGCFZ-112" value="" style="shape=partialRectangle;collapsible=0;dropTarget=0;pointerEvents=0;fillColor=#dae8fc;points=[[0,0.5],[1,0.5]];portConstraint=eastwest;top=0;left=0;right=0;bottom=0;fontSize=14;strokeColor=#6c8ebf;" vertex="1" parent="GWjoIAEa0WmcNTmmGCFZ-87">
          <mxGeometry y="270" width="250" height="30" as="geometry" />
        </mxCell>
        <mxCell id="GWjoIAEa0WmcNTmmGCFZ-113" value="" style="shape=partialRectangle;overflow=hidden;connectable=0;fillColor=#dae8fc;top=0;left=0;bottom=0;right=0;fontSize=14;strokeColor=#6c8ebf;" vertex="1" parent="GWjoIAEa0WmcNTmmGCFZ-112">
          <mxGeometry width="30" height="30" as="geometry">
            <mxRectangle width="30" height="30" as="alternateBounds" />
          </mxGeometry>
        </mxCell>
        <mxCell id="GWjoIAEa0WmcNTmmGCFZ-114" value="City" style="shape=partialRectangle;overflow=hidden;connectable=0;fillColor=#dae8fc;top=0;left=0;bottom=0;right=0;align=left;spacingLeft=6;fontSize=14;strokeColor=#6c8ebf;" vertex="1" parent="GWjoIAEa0WmcNTmmGCFZ-112">
          <mxGeometry x="30" width="220" height="30" as="geometry">
            <mxRectangle width="220" height="30" as="alternateBounds" />
          </mxGeometry>
        </mxCell>
        <mxCell id="GWjoIAEa0WmcNTmmGCFZ-115" value="" style="shape=partialRectangle;collapsible=0;dropTarget=0;pointerEvents=0;fillColor=#dae8fc;points=[[0,0.5],[1,0.5]];portConstraint=eastwest;top=0;left=0;right=0;bottom=0;fontSize=14;strokeColor=#6c8ebf;" vertex="1" parent="GWjoIAEa0WmcNTmmGCFZ-87">
          <mxGeometry y="300" width="250" height="30" as="geometry" />
        </mxCell>
        <mxCell id="GWjoIAEa0WmcNTmmGCFZ-116" value="" style="shape=partialRectangle;overflow=hidden;connectable=0;fillColor=#dae8fc;top=0;left=0;bottom=0;right=0;fontSize=14;strokeColor=#6c8ebf;" vertex="1" parent="GWjoIAEa0WmcNTmmGCFZ-115">
          <mxGeometry width="30" height="30" as="geometry">
            <mxRectangle width="30" height="30" as="alternateBounds" />
          </mxGeometry>
        </mxCell>
        <mxCell id="GWjoIAEa0WmcNTmmGCFZ-117" value="Address" style="shape=partialRectangle;overflow=hidden;connectable=0;fillColor=#dae8fc;top=0;left=0;bottom=0;right=0;align=left;spacingLeft=6;fontSize=14;strokeColor=#6c8ebf;" vertex="1" parent="GWjoIAEa0WmcNTmmGCFZ-115">
          <mxGeometry x="30" width="220" height="30" as="geometry">
            <mxRectangle width="220" height="30" as="alternateBounds" />
          </mxGeometry>
        </mxCell>
        <mxCell id="GWjoIAEa0WmcNTmmGCFZ-118" value="" style="shape=partialRectangle;collapsible=0;dropTarget=0;pointerEvents=0;fillColor=#dae8fc;points=[[0,0.5],[1,0.5]];portConstraint=eastwest;top=0;left=0;right=0;bottom=0;fontSize=14;strokeColor=#6c8ebf;" vertex="1" parent="GWjoIAEa0WmcNTmmGCFZ-87">
          <mxGeometry y="330" width="250" height="30" as="geometry" />
        </mxCell>
        <mxCell id="GWjoIAEa0WmcNTmmGCFZ-119" value="" style="shape=partialRectangle;overflow=hidden;connectable=0;fillColor=#dae8fc;top=0;left=0;bottom=0;right=0;fontSize=14;strokeColor=#6c8ebf;" vertex="1" parent="GWjoIAEa0WmcNTmmGCFZ-118">
          <mxGeometry width="30" height="30" as="geometry">
            <mxRectangle width="30" height="30" as="alternateBounds" />
          </mxGeometry>
        </mxCell>
        <mxCell id="GWjoIAEa0WmcNTmmGCFZ-120" value="Fax" style="shape=partialRectangle;overflow=hidden;connectable=0;fillColor=#dae8fc;top=0;left=0;bottom=0;right=0;align=left;spacingLeft=6;fontSize=14;strokeColor=#6c8ebf;" vertex="1" parent="GWjoIAEa0WmcNTmmGCFZ-118">
          <mxGeometry x="30" width="220" height="30" as="geometry">
            <mxRectangle width="220" height="30" as="alternateBounds" />
          </mxGeometry>
        </mxCell>
        <mxCell id="GWjoIAEa0WmcNTmmGCFZ-121" value="" style="shape=partialRectangle;collapsible=0;dropTarget=0;pointerEvents=0;fillColor=#dae8fc;points=[[0,0.5],[1,0.5]];portConstraint=eastwest;top=0;left=0;right=0;bottom=0;fontSize=14;strokeColor=#6c8ebf;" vertex="1" parent="GWjoIAEa0WmcNTmmGCFZ-87">
          <mxGeometry y="360" width="250" height="30" as="geometry" />
        </mxCell>
        <mxCell id="GWjoIAEa0WmcNTmmGCFZ-122" value="" style="shape=partialRectangle;overflow=hidden;connectable=0;fillColor=#dae8fc;top=0;left=0;bottom=0;right=0;fontSize=14;strokeColor=#6c8ebf;" vertex="1" parent="GWjoIAEa0WmcNTmmGCFZ-121">
          <mxGeometry width="30" height="30" as="geometry">
            <mxRectangle width="30" height="30" as="alternateBounds" />
          </mxGeometry>
        </mxCell>
        <mxCell id="GWjoIAEa0WmcNTmmGCFZ-123" value="Phone" style="shape=partialRectangle;overflow=hidden;connectable=0;fillColor=#dae8fc;top=0;left=0;bottom=0;right=0;align=left;spacingLeft=6;fontSize=14;strokeColor=#6c8ebf;" vertex="1" parent="GWjoIAEa0WmcNTmmGCFZ-121">
          <mxGeometry x="30" width="220" height="30" as="geometry">
            <mxRectangle width="220" height="30" as="alternateBounds" />
          </mxGeometry>
        </mxCell>
        <mxCell id="GWjoIAEa0WmcNTmmGCFZ-138" value="ShipInfo_Dim" style="shape=table;startSize=29;container=1;collapsible=1;childLayout=tableLayout;fixedRows=1;rowLines=0;fontStyle=1;align=center;resizeLast=1;fontSize=14;verticalAlign=middle;fillColor=#dae8fc;strokeColor=#6c8ebf;" vertex="1" parent="1">
          <mxGeometry x="-1073.52" y="-672" width="250" height="270" as="geometry">
            <mxRectangle x="-580" y="520" width="120" height="30" as="alternateBounds" />
          </mxGeometry>
        </mxCell>
        <mxCell id="GWjoIAEa0WmcNTmmGCFZ-139" value="" style="shape=partialRectangle;collapsible=0;dropTarget=0;pointerEvents=0;fillColor=#dae8fc;points=[[0,0.5],[1,0.5]];portConstraint=eastwest;top=0;left=0;right=0;bottom=1;fontSize=14;verticalAlign=middle;align=left;strokeColor=#6c8ebf;" vertex="1" parent="GWjoIAEa0WmcNTmmGCFZ-138">
          <mxGeometry y="29" width="250" height="30" as="geometry" />
        </mxCell>
        <mxCell id="GWjoIAEa0WmcNTmmGCFZ-140" value="PK" style="shape=partialRectangle;overflow=hidden;connectable=0;fillColor=#dae8fc;top=0;left=0;bottom=0;right=0;fontStyle=1;fontSize=14;verticalAlign=middle;align=center;strokeColor=#6c8ebf;" vertex="1" parent="GWjoIAEa0WmcNTmmGCFZ-139">
          <mxGeometry width="30" height="30" as="geometry">
            <mxRectangle width="30" height="30" as="alternateBounds" />
          </mxGeometry>
        </mxCell>
        <mxCell id="GWjoIAEa0WmcNTmmGCFZ-141" value="ShipInfo_Sk" style="shape=partialRectangle;overflow=hidden;connectable=0;fillColor=#dae8fc;top=0;left=0;bottom=0;right=0;align=left;spacingLeft=6;fontStyle=5;fontSize=14;verticalAlign=middle;strokeColor=#6c8ebf;" vertex="1" parent="GWjoIAEa0WmcNTmmGCFZ-139">
          <mxGeometry x="30" width="220" height="30" as="geometry">
            <mxRectangle width="220" height="30" as="alternateBounds" />
          </mxGeometry>
        </mxCell>
        <mxCell id="GWjoIAEa0WmcNTmmGCFZ-172" value="" style="shape=partialRectangle;collapsible=0;dropTarget=0;pointerEvents=0;fillColor=#dae8fc;points=[[0,0.5],[1,0.5]];portConstraint=eastwest;top=0;left=0;right=0;bottom=0;fontSize=14;verticalAlign=middle;align=left;strokeColor=#6c8ebf;" vertex="1" parent="GWjoIAEa0WmcNTmmGCFZ-138">
          <mxGeometry y="59" width="250" height="30" as="geometry" />
        </mxCell>
        <mxCell id="GWjoIAEa0WmcNTmmGCFZ-173" value="" style="shape=partialRectangle;overflow=hidden;connectable=0;fillColor=#dae8fc;top=0;left=0;bottom=0;right=0;fontSize=14;verticalAlign=middle;align=left;strokeColor=#6c8ebf;" vertex="1" parent="GWjoIAEa0WmcNTmmGCFZ-172">
          <mxGeometry width="30" height="30" as="geometry">
            <mxRectangle width="30" height="30" as="alternateBounds" />
          </mxGeometry>
        </mxCell>
        <mxCell id="GWjoIAEa0WmcNTmmGCFZ-174" value="ShipVia" style="shape=partialRectangle;overflow=hidden;connectable=0;fillColor=#dae8fc;top=0;left=0;bottom=0;right=0;align=left;spacingLeft=6;fontSize=14;verticalAlign=middle;strokeColor=#6c8ebf;" vertex="1" parent="GWjoIAEa0WmcNTmmGCFZ-172">
          <mxGeometry x="30" width="220" height="30" as="geometry">
            <mxRectangle width="220" height="30" as="alternateBounds" />
          </mxGeometry>
        </mxCell>
        <mxCell id="GWjoIAEa0WmcNTmmGCFZ-160" value="" style="shape=partialRectangle;collapsible=0;dropTarget=0;pointerEvents=0;fillColor=#dae8fc;points=[[0,0.5],[1,0.5]];portConstraint=eastwest;top=0;left=0;right=0;bottom=0;fontSize=14;verticalAlign=middle;align=left;strokeColor=#6c8ebf;" vertex="1" parent="GWjoIAEa0WmcNTmmGCFZ-138">
          <mxGeometry y="89" width="250" height="30" as="geometry" />
        </mxCell>
        <mxCell id="GWjoIAEa0WmcNTmmGCFZ-161" value="" style="shape=partialRectangle;overflow=hidden;connectable=0;fillColor=#dae8fc;top=0;left=0;bottom=0;right=0;fontSize=14;verticalAlign=middle;align=left;strokeColor=#6c8ebf;" vertex="1" parent="GWjoIAEa0WmcNTmmGCFZ-160">
          <mxGeometry width="30" height="30" as="geometry">
            <mxRectangle width="30" height="30" as="alternateBounds" />
          </mxGeometry>
        </mxCell>
        <mxCell id="GWjoIAEa0WmcNTmmGCFZ-162" value="ShipCity" style="shape=partialRectangle;overflow=hidden;connectable=0;fillColor=#dae8fc;top=0;left=0;bottom=0;right=0;align=left;spacingLeft=6;fontSize=14;verticalAlign=middle;strokeColor=#6c8ebf;" vertex="1" parent="GWjoIAEa0WmcNTmmGCFZ-160">
          <mxGeometry x="30" width="220" height="30" as="geometry">
            <mxRectangle width="220" height="30" as="alternateBounds" />
          </mxGeometry>
        </mxCell>
        <mxCell id="GWjoIAEa0WmcNTmmGCFZ-163" value="" style="shape=partialRectangle;collapsible=0;dropTarget=0;pointerEvents=0;fillColor=#dae8fc;points=[[0,0.5],[1,0.5]];portConstraint=eastwest;top=0;left=0;right=0;bottom=0;fontSize=14;verticalAlign=middle;align=left;strokeColor=#6c8ebf;" vertex="1" parent="GWjoIAEa0WmcNTmmGCFZ-138">
          <mxGeometry y="119" width="250" height="30" as="geometry" />
        </mxCell>
        <mxCell id="GWjoIAEa0WmcNTmmGCFZ-164" value="" style="shape=partialRectangle;overflow=hidden;connectable=0;fillColor=#dae8fc;top=0;left=0;bottom=0;right=0;fontSize=14;verticalAlign=middle;align=left;strokeColor=#6c8ebf;" vertex="1" parent="GWjoIAEa0WmcNTmmGCFZ-163">
          <mxGeometry width="30" height="30" as="geometry">
            <mxRectangle width="30" height="30" as="alternateBounds" />
          </mxGeometry>
        </mxCell>
        <mxCell id="GWjoIAEa0WmcNTmmGCFZ-165" value="ShipCountry" style="shape=partialRectangle;overflow=hidden;connectable=0;fillColor=#dae8fc;top=0;left=0;bottom=0;right=0;align=left;spacingLeft=6;fontSize=14;verticalAlign=middle;strokeColor=#6c8ebf;" vertex="1" parent="GWjoIAEa0WmcNTmmGCFZ-163">
          <mxGeometry x="30" width="220" height="30" as="geometry">
            <mxRectangle width="220" height="30" as="alternateBounds" />
          </mxGeometry>
        </mxCell>
        <mxCell id="GWjoIAEa0WmcNTmmGCFZ-166" value="" style="shape=partialRectangle;collapsible=0;dropTarget=0;pointerEvents=0;fillColor=#dae8fc;points=[[0,0.5],[1,0.5]];portConstraint=eastwest;top=0;left=0;right=0;bottom=0;fontSize=14;verticalAlign=middle;align=left;strokeColor=#6c8ebf;" vertex="1" parent="GWjoIAEa0WmcNTmmGCFZ-138">
          <mxGeometry y="149" width="250" height="30" as="geometry" />
        </mxCell>
        <mxCell id="GWjoIAEa0WmcNTmmGCFZ-167" value="" style="shape=partialRectangle;overflow=hidden;connectable=0;fillColor=#dae8fc;top=0;left=0;bottom=0;right=0;fontSize=14;verticalAlign=middle;align=left;strokeColor=#6c8ebf;" vertex="1" parent="GWjoIAEa0WmcNTmmGCFZ-166">
          <mxGeometry width="30" height="30" as="geometry">
            <mxRectangle width="30" height="30" as="alternateBounds" />
          </mxGeometry>
        </mxCell>
        <mxCell id="GWjoIAEa0WmcNTmmGCFZ-168" value="ShipRegion" style="shape=partialRectangle;overflow=hidden;connectable=0;fillColor=#dae8fc;top=0;left=0;bottom=0;right=0;align=left;spacingLeft=6;fontSize=14;verticalAlign=middle;strokeColor=#6c8ebf;" vertex="1" parent="GWjoIAEa0WmcNTmmGCFZ-166">
          <mxGeometry x="30" width="220" height="30" as="geometry">
            <mxRectangle width="220" height="30" as="alternateBounds" />
          </mxGeometry>
        </mxCell>
        <mxCell id="GWjoIAEa0WmcNTmmGCFZ-169" value="" style="shape=partialRectangle;collapsible=0;dropTarget=0;pointerEvents=0;fillColor=#dae8fc;points=[[0,0.5],[1,0.5]];portConstraint=eastwest;top=0;left=0;right=0;bottom=0;fontSize=14;verticalAlign=middle;align=left;strokeColor=#6c8ebf;" vertex="1" parent="GWjoIAEa0WmcNTmmGCFZ-138">
          <mxGeometry y="179" width="250" height="30" as="geometry" />
        </mxCell>
        <mxCell id="GWjoIAEa0WmcNTmmGCFZ-170" value="" style="shape=partialRectangle;overflow=hidden;connectable=0;fillColor=#dae8fc;top=0;left=0;bottom=0;right=0;fontSize=14;verticalAlign=middle;align=left;strokeColor=#6c8ebf;" vertex="1" parent="GWjoIAEa0WmcNTmmGCFZ-169">
          <mxGeometry width="30" height="30" as="geometry">
            <mxRectangle width="30" height="30" as="alternateBounds" />
          </mxGeometry>
        </mxCell>
        <mxCell id="GWjoIAEa0WmcNTmmGCFZ-171" value="ShipName" style="shape=partialRectangle;overflow=hidden;connectable=0;fillColor=#dae8fc;top=0;left=0;bottom=0;right=0;align=left;spacingLeft=6;fontSize=14;verticalAlign=middle;strokeColor=#6c8ebf;" vertex="1" parent="GWjoIAEa0WmcNTmmGCFZ-169">
          <mxGeometry x="30" width="220" height="30" as="geometry">
            <mxRectangle width="220" height="30" as="alternateBounds" />
          </mxGeometry>
        </mxCell>
        <mxCell id="GWjoIAEa0WmcNTmmGCFZ-175" value="" style="shape=partialRectangle;collapsible=0;dropTarget=0;pointerEvents=0;fillColor=#dae8fc;points=[[0,0.5],[1,0.5]];portConstraint=eastwest;top=0;left=0;right=0;bottom=0;fontSize=14;verticalAlign=middle;align=left;strokeColor=#6c8ebf;" vertex="1" parent="GWjoIAEa0WmcNTmmGCFZ-138">
          <mxGeometry y="209" width="250" height="30" as="geometry" />
        </mxCell>
        <mxCell id="GWjoIAEa0WmcNTmmGCFZ-176" value="" style="shape=partialRectangle;overflow=hidden;connectable=0;fillColor=#dae8fc;top=0;left=0;bottom=0;right=0;fontSize=14;verticalAlign=middle;align=left;strokeColor=#6c8ebf;" vertex="1" parent="GWjoIAEa0WmcNTmmGCFZ-175">
          <mxGeometry width="30" height="30" as="geometry">
            <mxRectangle width="30" height="30" as="alternateBounds" />
          </mxGeometry>
        </mxCell>
        <mxCell id="GWjoIAEa0WmcNTmmGCFZ-177" value="ShipPostalCode" style="shape=partialRectangle;overflow=hidden;connectable=0;fillColor=#dae8fc;top=0;left=0;bottom=0;right=0;align=left;spacingLeft=6;fontSize=14;verticalAlign=middle;strokeColor=#6c8ebf;" vertex="1" parent="GWjoIAEa0WmcNTmmGCFZ-175">
          <mxGeometry x="30" width="220" height="30" as="geometry">
            <mxRectangle width="220" height="30" as="alternateBounds" />
          </mxGeometry>
        </mxCell>
        <mxCell id="GWjoIAEa0WmcNTmmGCFZ-178" value="" style="shape=partialRectangle;collapsible=0;dropTarget=0;pointerEvents=0;fillColor=#dae8fc;points=[[0,0.5],[1,0.5]];portConstraint=eastwest;top=0;left=0;right=0;bottom=0;fontSize=14;verticalAlign=middle;align=left;strokeColor=#6c8ebf;" vertex="1" parent="GWjoIAEa0WmcNTmmGCFZ-138">
          <mxGeometry y="239" width="250" height="30" as="geometry" />
        </mxCell>
        <mxCell id="GWjoIAEa0WmcNTmmGCFZ-179" value="" style="shape=partialRectangle;overflow=hidden;connectable=0;fillColor=#dae8fc;top=0;left=0;bottom=0;right=0;fontSize=14;verticalAlign=middle;align=left;strokeColor=#6c8ebf;" vertex="1" parent="GWjoIAEa0WmcNTmmGCFZ-178">
          <mxGeometry width="30" height="30" as="geometry">
            <mxRectangle width="30" height="30" as="alternateBounds" />
          </mxGeometry>
        </mxCell>
        <mxCell id="GWjoIAEa0WmcNTmmGCFZ-180" value="ShipAddress" style="shape=partialRectangle;overflow=hidden;connectable=0;fillColor=#dae8fc;top=0;left=0;bottom=0;right=0;align=left;spacingLeft=6;fontSize=14;verticalAlign=middle;strokeColor=#6c8ebf;" vertex="1" parent="GWjoIAEa0WmcNTmmGCFZ-178">
          <mxGeometry x="30" width="220" height="30" as="geometry">
            <mxRectangle width="220" height="30" as="alternateBounds" />
          </mxGeometry>
        </mxCell>
        <mxCell id="GWjoIAEa0WmcNTmmGCFZ-181" value="Shipper_Dim" style="shape=table;startSize=26;container=1;collapsible=1;childLayout=tableLayout;fixedRows=1;rowLines=0;fontStyle=1;align=center;resizeLast=1;fontSize=14;fillColor=#dae8fc;strokeColor=#6c8ebf;" vertex="1" parent="1">
          <mxGeometry x="-1406" y="-672" width="252.5" height="146" as="geometry" />
        </mxCell>
        <mxCell id="GWjoIAEa0WmcNTmmGCFZ-182" value="" style="shape=partialRectangle;collapsible=0;dropTarget=0;pointerEvents=0;fillColor=#dae8fc;points=[[0,0.5],[1,0.5]];portConstraint=eastwest;top=0;left=0;right=0;bottom=1;fontSize=14;strokeColor=#6c8ebf;" vertex="1" parent="GWjoIAEa0WmcNTmmGCFZ-181">
          <mxGeometry y="26" width="252.5" height="30" as="geometry" />
        </mxCell>
        <mxCell id="GWjoIAEa0WmcNTmmGCFZ-183" value="PK" style="shape=partialRectangle;overflow=hidden;connectable=0;fillColor=#dae8fc;top=0;left=0;bottom=0;right=0;fontStyle=1;fontSize=14;strokeColor=#6c8ebf;" vertex="1" parent="GWjoIAEa0WmcNTmmGCFZ-182">
          <mxGeometry width="30" height="30" as="geometry">
            <mxRectangle width="30" height="30" as="alternateBounds" />
          </mxGeometry>
        </mxCell>
        <mxCell id="GWjoIAEa0WmcNTmmGCFZ-184" value="Shipper_SK" style="shape=partialRectangle;overflow=hidden;connectable=0;fillColor=#dae8fc;top=0;left=0;bottom=0;right=0;align=left;spacingLeft=6;fontStyle=5;fontSize=14;strokeColor=#6c8ebf;" vertex="1" parent="GWjoIAEa0WmcNTmmGCFZ-182">
          <mxGeometry x="30" width="222.5" height="30" as="geometry">
            <mxRectangle width="222.5" height="30" as="alternateBounds" />
          </mxGeometry>
        </mxCell>
        <mxCell id="GWjoIAEa0WmcNTmmGCFZ-290" value="" style="shape=partialRectangle;collapsible=0;dropTarget=0;pointerEvents=0;fillColor=#dae8fc;points=[[0,0.5],[1,0.5]];portConstraint=eastwest;top=0;left=0;right=0;bottom=0;fontSize=14;strokeColor=#6c8ebf;" vertex="1" parent="GWjoIAEa0WmcNTmmGCFZ-181">
          <mxGeometry y="56" width="252.5" height="30" as="geometry" />
        </mxCell>
        <mxCell id="GWjoIAEa0WmcNTmmGCFZ-291" value="" style="shape=partialRectangle;overflow=hidden;connectable=0;fillColor=#dae8fc;top=0;left=0;bottom=0;right=0;fontSize=14;strokeColor=#6c8ebf;" vertex="1" parent="GWjoIAEa0WmcNTmmGCFZ-290">
          <mxGeometry width="30" height="30" as="geometry">
            <mxRectangle width="30" height="30" as="alternateBounds" />
          </mxGeometry>
        </mxCell>
        <mxCell id="GWjoIAEa0WmcNTmmGCFZ-292" value="ShipperID" style="shape=partialRectangle;overflow=hidden;connectable=0;fillColor=#dae8fc;top=0;left=0;bottom=0;right=0;align=left;spacingLeft=6;fontSize=14;fontStyle=0;strokeColor=#6c8ebf;" vertex="1" parent="GWjoIAEa0WmcNTmmGCFZ-290">
          <mxGeometry x="30" width="222.5" height="30" as="geometry">
            <mxRectangle width="222.5" height="30" as="alternateBounds" />
          </mxGeometry>
        </mxCell>
        <mxCell id="GWjoIAEa0WmcNTmmGCFZ-185" value="" style="shape=partialRectangle;collapsible=0;dropTarget=0;pointerEvents=0;fillColor=#dae8fc;points=[[0,0.5],[1,0.5]];portConstraint=eastwest;top=0;left=0;right=0;bottom=0;fontSize=14;strokeColor=#6c8ebf;" vertex="1" parent="GWjoIAEa0WmcNTmmGCFZ-181">
          <mxGeometry y="86" width="252.5" height="30" as="geometry" />
        </mxCell>
        <mxCell id="GWjoIAEa0WmcNTmmGCFZ-186" value="" style="shape=partialRectangle;overflow=hidden;connectable=0;fillColor=#dae8fc;top=0;left=0;bottom=0;right=0;fontSize=14;strokeColor=#6c8ebf;" vertex="1" parent="GWjoIAEa0WmcNTmmGCFZ-185">
          <mxGeometry width="30" height="30" as="geometry">
            <mxRectangle width="30" height="30" as="alternateBounds" />
          </mxGeometry>
        </mxCell>
        <mxCell id="GWjoIAEa0WmcNTmmGCFZ-187" value="CompanyName" style="shape=partialRectangle;overflow=hidden;connectable=0;fillColor=#dae8fc;top=0;left=0;bottom=0;right=0;align=left;spacingLeft=6;fontSize=14;strokeColor=#6c8ebf;" vertex="1" parent="GWjoIAEa0WmcNTmmGCFZ-185">
          <mxGeometry x="30" width="222.5" height="30" as="geometry">
            <mxRectangle width="222.5" height="30" as="alternateBounds" />
          </mxGeometry>
        </mxCell>
        <mxCell id="GWjoIAEa0WmcNTmmGCFZ-188" value="" style="shape=partialRectangle;collapsible=0;dropTarget=0;pointerEvents=0;fillColor=#dae8fc;points=[[0,0.5],[1,0.5]];portConstraint=eastwest;top=0;left=0;right=0;bottom=0;fontSize=14;strokeColor=#6c8ebf;" vertex="1" parent="GWjoIAEa0WmcNTmmGCFZ-181">
          <mxGeometry y="116" width="252.5" height="30" as="geometry" />
        </mxCell>
        <mxCell id="GWjoIAEa0WmcNTmmGCFZ-189" value="" style="shape=partialRectangle;overflow=hidden;connectable=0;fillColor=#dae8fc;top=0;left=0;bottom=0;right=0;fontSize=14;strokeColor=#6c8ebf;" vertex="1" parent="GWjoIAEa0WmcNTmmGCFZ-188">
          <mxGeometry width="30" height="30" as="geometry">
            <mxRectangle width="30" height="30" as="alternateBounds" />
          </mxGeometry>
        </mxCell>
        <mxCell id="GWjoIAEa0WmcNTmmGCFZ-190" value="Phone" style="shape=partialRectangle;overflow=hidden;connectable=0;fillColor=#dae8fc;top=0;left=0;bottom=0;right=0;align=left;spacingLeft=6;fontSize=14;strokeColor=#6c8ebf;" vertex="1" parent="GWjoIAEa0WmcNTmmGCFZ-188">
          <mxGeometry x="30" width="222.5" height="30" as="geometry">
            <mxRectangle width="222.5" height="30" as="alternateBounds" />
          </mxGeometry>
        </mxCell>
        <mxCell id="GWjoIAEa0WmcNTmmGCFZ-191" value="Supplier_Dim" style="shape=table;startSize=32;container=1;collapsible=1;childLayout=tableLayout;fixedRows=1;rowLines=0;fontStyle=1;align=center;resizeLast=1;fontSize=14;verticalAlign=middle;fillColor=#dae8fc;strokeColor=#6c8ebf;" vertex="1" parent="1">
          <mxGeometry x="-1777" y="-672" width="250" height="422" as="geometry">
            <mxRectangle x="-580" y="520" width="120" height="30" as="alternateBounds" />
          </mxGeometry>
        </mxCell>
        <mxCell id="GWjoIAEa0WmcNTmmGCFZ-192" value="" style="shape=partialRectangle;collapsible=0;dropTarget=0;pointerEvents=0;fillColor=#dae8fc;points=[[0,0.5],[1,0.5]];portConstraint=eastwest;top=0;left=0;right=0;bottom=1;fontSize=14;verticalAlign=middle;align=left;strokeColor=#6c8ebf;" vertex="1" parent="GWjoIAEa0WmcNTmmGCFZ-191">
          <mxGeometry y="32" width="250" height="30" as="geometry" />
        </mxCell>
        <mxCell id="GWjoIAEa0WmcNTmmGCFZ-193" value="PK" style="shape=partialRectangle;overflow=hidden;connectable=0;fillColor=#dae8fc;top=0;left=0;bottom=0;right=0;fontStyle=1;fontSize=14;verticalAlign=middle;align=center;strokeColor=#6c8ebf;" vertex="1" parent="GWjoIAEa0WmcNTmmGCFZ-192">
          <mxGeometry width="30" height="30" as="geometry">
            <mxRectangle width="30" height="30" as="alternateBounds" />
          </mxGeometry>
        </mxCell>
        <mxCell id="GWjoIAEa0WmcNTmmGCFZ-194" value="Supplier_SK" style="shape=partialRectangle;overflow=hidden;connectable=0;fillColor=#dae8fc;top=0;left=0;bottom=0;right=0;align=left;spacingLeft=6;fontStyle=5;fontSize=14;verticalAlign=middle;strokeColor=#6c8ebf;" vertex="1" parent="GWjoIAEa0WmcNTmmGCFZ-192">
          <mxGeometry x="30" width="220" height="30" as="geometry">
            <mxRectangle width="220" height="30" as="alternateBounds" />
          </mxGeometry>
        </mxCell>
        <mxCell id="GWjoIAEa0WmcNTmmGCFZ-293" value="" style="shape=partialRectangle;collapsible=0;dropTarget=0;pointerEvents=0;fillColor=#dae8fc;points=[[0,0.5],[1,0.5]];portConstraint=eastwest;top=0;left=0;right=0;bottom=0;fontSize=14;verticalAlign=middle;align=left;strokeColor=#6c8ebf;" vertex="1" parent="GWjoIAEa0WmcNTmmGCFZ-191">
          <mxGeometry y="62" width="250" height="30" as="geometry" />
        </mxCell>
        <mxCell id="GWjoIAEa0WmcNTmmGCFZ-294" value="" style="shape=partialRectangle;overflow=hidden;connectable=0;fillColor=#dae8fc;top=0;left=0;bottom=0;right=0;fontSize=14;verticalAlign=middle;align=left;strokeColor=#6c8ebf;" vertex="1" parent="GWjoIAEa0WmcNTmmGCFZ-293">
          <mxGeometry width="30" height="30" as="geometry">
            <mxRectangle width="30" height="30" as="alternateBounds" />
          </mxGeometry>
        </mxCell>
        <mxCell id="GWjoIAEa0WmcNTmmGCFZ-295" value="SupplierID" style="shape=partialRectangle;overflow=hidden;connectable=0;fillColor=#dae8fc;top=0;left=0;bottom=0;right=0;align=left;spacingLeft=6;fontSize=14;verticalAlign=middle;strokeColor=#6c8ebf;" vertex="1" parent="GWjoIAEa0WmcNTmmGCFZ-293">
          <mxGeometry x="30" width="220" height="30" as="geometry">
            <mxRectangle width="220" height="30" as="alternateBounds" />
          </mxGeometry>
        </mxCell>
        <mxCell id="GWjoIAEa0WmcNTmmGCFZ-195" value="" style="shape=partialRectangle;collapsible=0;dropTarget=0;pointerEvents=0;fillColor=#dae8fc;points=[[0,0.5],[1,0.5]];portConstraint=eastwest;top=0;left=0;right=0;bottom=0;fontSize=14;verticalAlign=middle;align=left;strokeColor=#6c8ebf;" vertex="1" parent="GWjoIAEa0WmcNTmmGCFZ-191">
          <mxGeometry y="92" width="250" height="30" as="geometry" />
        </mxCell>
        <mxCell id="GWjoIAEa0WmcNTmmGCFZ-196" value="" style="shape=partialRectangle;overflow=hidden;connectable=0;fillColor=#dae8fc;top=0;left=0;bottom=0;right=0;fontSize=14;verticalAlign=middle;align=left;strokeColor=#6c8ebf;" vertex="1" parent="GWjoIAEa0WmcNTmmGCFZ-195">
          <mxGeometry width="30" height="30" as="geometry">
            <mxRectangle width="30" height="30" as="alternateBounds" />
          </mxGeometry>
        </mxCell>
        <mxCell id="GWjoIAEa0WmcNTmmGCFZ-197" value="CompanyName" style="shape=partialRectangle;overflow=hidden;connectable=0;fillColor=#dae8fc;top=0;left=0;bottom=0;right=0;align=left;spacingLeft=6;fontSize=14;verticalAlign=middle;strokeColor=#6c8ebf;" vertex="1" parent="GWjoIAEa0WmcNTmmGCFZ-195">
          <mxGeometry x="30" width="220" height="30" as="geometry">
            <mxRectangle width="220" height="30" as="alternateBounds" />
          </mxGeometry>
        </mxCell>
        <mxCell id="GWjoIAEa0WmcNTmmGCFZ-198" value="" style="shape=partialRectangle;collapsible=0;dropTarget=0;pointerEvents=0;fillColor=#dae8fc;points=[[0,0.5],[1,0.5]];portConstraint=eastwest;top=0;left=0;right=0;bottom=0;fontSize=14;verticalAlign=middle;align=left;strokeColor=#6c8ebf;" vertex="1" parent="GWjoIAEa0WmcNTmmGCFZ-191">
          <mxGeometry y="122" width="250" height="30" as="geometry" />
        </mxCell>
        <mxCell id="GWjoIAEa0WmcNTmmGCFZ-199" value="" style="shape=partialRectangle;overflow=hidden;connectable=0;fillColor=#dae8fc;top=0;left=0;bottom=0;right=0;fontSize=14;verticalAlign=middle;align=left;strokeColor=#6c8ebf;" vertex="1" parent="GWjoIAEa0WmcNTmmGCFZ-198">
          <mxGeometry width="30" height="30" as="geometry">
            <mxRectangle width="30" height="30" as="alternateBounds" />
          </mxGeometry>
        </mxCell>
        <mxCell id="GWjoIAEa0WmcNTmmGCFZ-200" value="ContactName" style="shape=partialRectangle;overflow=hidden;connectable=0;fillColor=#dae8fc;top=0;left=0;bottom=0;right=0;align=left;spacingLeft=6;fontSize=14;verticalAlign=middle;strokeColor=#6c8ebf;" vertex="1" parent="GWjoIAEa0WmcNTmmGCFZ-198">
          <mxGeometry x="30" width="220" height="30" as="geometry">
            <mxRectangle width="220" height="30" as="alternateBounds" />
          </mxGeometry>
        </mxCell>
        <mxCell id="GWjoIAEa0WmcNTmmGCFZ-201" value="" style="shape=partialRectangle;collapsible=0;dropTarget=0;pointerEvents=0;fillColor=#dae8fc;points=[[0,0.5],[1,0.5]];portConstraint=eastwest;top=0;left=0;right=0;bottom=0;fontSize=14;verticalAlign=middle;align=left;strokeColor=#6c8ebf;" vertex="1" parent="GWjoIAEa0WmcNTmmGCFZ-191">
          <mxGeometry y="152" width="250" height="30" as="geometry" />
        </mxCell>
        <mxCell id="GWjoIAEa0WmcNTmmGCFZ-202" value="" style="shape=partialRectangle;overflow=hidden;connectable=0;fillColor=#dae8fc;top=0;left=0;bottom=0;right=0;fontSize=14;verticalAlign=middle;align=left;strokeColor=#6c8ebf;" vertex="1" parent="GWjoIAEa0WmcNTmmGCFZ-201">
          <mxGeometry width="30" height="30" as="geometry">
            <mxRectangle width="30" height="30" as="alternateBounds" />
          </mxGeometry>
        </mxCell>
        <mxCell id="GWjoIAEa0WmcNTmmGCFZ-203" value="ContactTitle" style="shape=partialRectangle;overflow=hidden;connectable=0;fillColor=#dae8fc;top=0;left=0;bottom=0;right=0;align=left;spacingLeft=6;fontSize=14;verticalAlign=middle;strokeColor=#6c8ebf;" vertex="1" parent="GWjoIAEa0WmcNTmmGCFZ-201">
          <mxGeometry x="30" width="220" height="30" as="geometry">
            <mxRectangle width="220" height="30" as="alternateBounds" />
          </mxGeometry>
        </mxCell>
        <mxCell id="GWjoIAEa0WmcNTmmGCFZ-204" value="" style="shape=partialRectangle;collapsible=0;dropTarget=0;pointerEvents=0;fillColor=#dae8fc;points=[[0,0.5],[1,0.5]];portConstraint=eastwest;top=0;left=0;right=0;bottom=0;fontSize=14;verticalAlign=middle;align=left;strokeColor=#6c8ebf;" vertex="1" parent="GWjoIAEa0WmcNTmmGCFZ-191">
          <mxGeometry y="182" width="250" height="30" as="geometry" />
        </mxCell>
        <mxCell id="GWjoIAEa0WmcNTmmGCFZ-205" value="" style="shape=partialRectangle;overflow=hidden;connectable=0;fillColor=#dae8fc;top=0;left=0;bottom=0;right=0;fontSize=14;verticalAlign=middle;align=left;strokeColor=#6c8ebf;" vertex="1" parent="GWjoIAEa0WmcNTmmGCFZ-204">
          <mxGeometry width="30" height="30" as="geometry">
            <mxRectangle width="30" height="30" as="alternateBounds" />
          </mxGeometry>
        </mxCell>
        <mxCell id="GWjoIAEa0WmcNTmmGCFZ-206" value="Phone" style="shape=partialRectangle;overflow=hidden;connectable=0;fillColor=#dae8fc;top=0;left=0;bottom=0;right=0;align=left;spacingLeft=6;fontSize=14;verticalAlign=middle;strokeColor=#6c8ebf;" vertex="1" parent="GWjoIAEa0WmcNTmmGCFZ-204">
          <mxGeometry x="30" width="220" height="30" as="geometry">
            <mxRectangle width="220" height="30" as="alternateBounds" />
          </mxGeometry>
        </mxCell>
        <mxCell id="GWjoIAEa0WmcNTmmGCFZ-207" value="" style="shape=partialRectangle;collapsible=0;dropTarget=0;pointerEvents=0;fillColor=#dae8fc;points=[[0,0.5],[1,0.5]];portConstraint=eastwest;top=0;left=0;right=0;bottom=0;fontSize=14;verticalAlign=middle;align=left;strokeColor=#6c8ebf;" vertex="1" parent="GWjoIAEa0WmcNTmmGCFZ-191">
          <mxGeometry y="212" width="250" height="30" as="geometry" />
        </mxCell>
        <mxCell id="GWjoIAEa0WmcNTmmGCFZ-208" value="" style="shape=partialRectangle;overflow=hidden;connectable=0;fillColor=#dae8fc;top=0;left=0;bottom=0;right=0;fontSize=14;verticalAlign=middle;align=left;strokeColor=#6c8ebf;" vertex="1" parent="GWjoIAEa0WmcNTmmGCFZ-207">
          <mxGeometry width="30" height="30" as="geometry">
            <mxRectangle width="30" height="30" as="alternateBounds" />
          </mxGeometry>
        </mxCell>
        <mxCell id="GWjoIAEa0WmcNTmmGCFZ-209" value="HomePage" style="shape=partialRectangle;overflow=hidden;connectable=0;fillColor=#dae8fc;top=0;left=0;bottom=0;right=0;align=left;spacingLeft=6;fontSize=14;verticalAlign=middle;strokeColor=#6c8ebf;" vertex="1" parent="GWjoIAEa0WmcNTmmGCFZ-207">
          <mxGeometry x="30" width="220" height="30" as="geometry">
            <mxRectangle width="220" height="30" as="alternateBounds" />
          </mxGeometry>
        </mxCell>
        <mxCell id="GWjoIAEa0WmcNTmmGCFZ-210" value="" style="shape=partialRectangle;collapsible=0;dropTarget=0;pointerEvents=0;fillColor=#dae8fc;points=[[0,0.5],[1,0.5]];portConstraint=eastwest;top=0;left=0;right=0;bottom=0;fontSize=14;verticalAlign=middle;align=left;strokeColor=#6c8ebf;" vertex="1" parent="GWjoIAEa0WmcNTmmGCFZ-191">
          <mxGeometry y="242" width="250" height="30" as="geometry" />
        </mxCell>
        <mxCell id="GWjoIAEa0WmcNTmmGCFZ-211" value="" style="shape=partialRectangle;overflow=hidden;connectable=0;fillColor=#dae8fc;top=0;left=0;bottom=0;right=0;fontSize=14;verticalAlign=middle;align=left;strokeColor=#6c8ebf;" vertex="1" parent="GWjoIAEa0WmcNTmmGCFZ-210">
          <mxGeometry width="30" height="30" as="geometry">
            <mxRectangle width="30" height="30" as="alternateBounds" />
          </mxGeometry>
        </mxCell>
        <mxCell id="GWjoIAEa0WmcNTmmGCFZ-212" value="PostalCode" style="shape=partialRectangle;overflow=hidden;connectable=0;fillColor=#dae8fc;top=0;left=0;bottom=0;right=0;align=left;spacingLeft=6;fontSize=14;verticalAlign=middle;strokeColor=#6c8ebf;" vertex="1" parent="GWjoIAEa0WmcNTmmGCFZ-210">
          <mxGeometry x="30" width="220" height="30" as="geometry">
            <mxRectangle width="220" height="30" as="alternateBounds" />
          </mxGeometry>
        </mxCell>
        <mxCell id="GWjoIAEa0WmcNTmmGCFZ-213" value="" style="shape=partialRectangle;collapsible=0;dropTarget=0;pointerEvents=0;fillColor=#dae8fc;points=[[0,0.5],[1,0.5]];portConstraint=eastwest;top=0;left=0;right=0;bottom=0;fontSize=14;verticalAlign=middle;align=left;strokeColor=#6c8ebf;" vertex="1" parent="GWjoIAEa0WmcNTmmGCFZ-191">
          <mxGeometry y="272" width="250" height="30" as="geometry" />
        </mxCell>
        <mxCell id="GWjoIAEa0WmcNTmmGCFZ-214" value="" style="shape=partialRectangle;overflow=hidden;connectable=0;fillColor=#dae8fc;top=0;left=0;bottom=0;right=0;fontSize=14;verticalAlign=middle;align=left;strokeColor=#6c8ebf;" vertex="1" parent="GWjoIAEa0WmcNTmmGCFZ-213">
          <mxGeometry width="30" height="30" as="geometry">
            <mxRectangle width="30" height="30" as="alternateBounds" />
          </mxGeometry>
        </mxCell>
        <mxCell id="GWjoIAEa0WmcNTmmGCFZ-215" value="Fax" style="shape=partialRectangle;overflow=hidden;connectable=0;fillColor=#dae8fc;top=0;left=0;bottom=0;right=0;align=left;spacingLeft=6;fontSize=14;verticalAlign=middle;strokeColor=#6c8ebf;" vertex="1" parent="GWjoIAEa0WmcNTmmGCFZ-213">
          <mxGeometry x="30" width="220" height="30" as="geometry">
            <mxRectangle width="220" height="30" as="alternateBounds" />
          </mxGeometry>
        </mxCell>
        <mxCell id="GWjoIAEa0WmcNTmmGCFZ-216" value="" style="shape=partialRectangle;collapsible=0;dropTarget=0;pointerEvents=0;fillColor=#dae8fc;points=[[0,0.5],[1,0.5]];portConstraint=eastwest;top=0;left=0;right=0;bottom=0;fontSize=14;verticalAlign=middle;align=left;strokeColor=#6c8ebf;" vertex="1" parent="GWjoIAEa0WmcNTmmGCFZ-191">
          <mxGeometry y="302" width="250" height="30" as="geometry" />
        </mxCell>
        <mxCell id="GWjoIAEa0WmcNTmmGCFZ-217" value="" style="shape=partialRectangle;overflow=hidden;connectable=0;fillColor=#dae8fc;top=0;left=0;bottom=0;right=0;fontSize=14;verticalAlign=middle;align=left;strokeColor=#6c8ebf;" vertex="1" parent="GWjoIAEa0WmcNTmmGCFZ-216">
          <mxGeometry width="30" height="30" as="geometry">
            <mxRectangle width="30" height="30" as="alternateBounds" />
          </mxGeometry>
        </mxCell>
        <mxCell id="GWjoIAEa0WmcNTmmGCFZ-218" value="Region" style="shape=partialRectangle;overflow=hidden;connectable=0;fillColor=#dae8fc;top=0;left=0;bottom=0;right=0;align=left;spacingLeft=6;fontSize=14;verticalAlign=middle;strokeColor=#6c8ebf;" vertex="1" parent="GWjoIAEa0WmcNTmmGCFZ-216">
          <mxGeometry x="30" width="220" height="30" as="geometry">
            <mxRectangle width="220" height="30" as="alternateBounds" />
          </mxGeometry>
        </mxCell>
        <mxCell id="GWjoIAEa0WmcNTmmGCFZ-219" value="" style="shape=partialRectangle;collapsible=0;dropTarget=0;pointerEvents=0;fillColor=#dae8fc;points=[[0,0.5],[1,0.5]];portConstraint=eastwest;top=0;left=0;right=0;bottom=0;fontSize=14;verticalAlign=middle;align=left;strokeColor=#6c8ebf;" vertex="1" parent="GWjoIAEa0WmcNTmmGCFZ-191">
          <mxGeometry y="332" width="250" height="30" as="geometry" />
        </mxCell>
        <mxCell id="GWjoIAEa0WmcNTmmGCFZ-220" value="" style="shape=partialRectangle;overflow=hidden;connectable=0;fillColor=#dae8fc;top=0;left=0;bottom=0;right=0;fontSize=14;verticalAlign=middle;align=left;strokeColor=#6c8ebf;" vertex="1" parent="GWjoIAEa0WmcNTmmGCFZ-219">
          <mxGeometry width="30" height="30" as="geometry">
            <mxRectangle width="30" height="30" as="alternateBounds" />
          </mxGeometry>
        </mxCell>
        <mxCell id="GWjoIAEa0WmcNTmmGCFZ-221" value="City" style="shape=partialRectangle;overflow=hidden;connectable=0;fillColor=#dae8fc;top=0;left=0;bottom=0;right=0;align=left;spacingLeft=6;fontSize=14;verticalAlign=middle;strokeColor=#6c8ebf;" vertex="1" parent="GWjoIAEa0WmcNTmmGCFZ-219">
          <mxGeometry x="30" width="220" height="30" as="geometry">
            <mxRectangle width="220" height="30" as="alternateBounds" />
          </mxGeometry>
        </mxCell>
        <mxCell id="GWjoIAEa0WmcNTmmGCFZ-222" value="" style="shape=partialRectangle;collapsible=0;dropTarget=0;pointerEvents=0;fillColor=#dae8fc;points=[[0,0.5],[1,0.5]];portConstraint=eastwest;top=0;left=0;right=0;bottom=0;fontSize=14;verticalAlign=middle;align=left;strokeColor=#6c8ebf;" vertex="1" parent="GWjoIAEa0WmcNTmmGCFZ-191">
          <mxGeometry y="362" width="250" height="30" as="geometry" />
        </mxCell>
        <mxCell id="GWjoIAEa0WmcNTmmGCFZ-223" value="" style="shape=partialRectangle;overflow=hidden;connectable=0;fillColor=#dae8fc;top=0;left=0;bottom=0;right=0;fontSize=14;verticalAlign=middle;align=left;strokeColor=#6c8ebf;" vertex="1" parent="GWjoIAEa0WmcNTmmGCFZ-222">
          <mxGeometry width="30" height="30" as="geometry">
            <mxRectangle width="30" height="30" as="alternateBounds" />
          </mxGeometry>
        </mxCell>
        <mxCell id="GWjoIAEa0WmcNTmmGCFZ-224" value="Country" style="shape=partialRectangle;overflow=hidden;connectable=0;fillColor=#dae8fc;top=0;left=0;bottom=0;right=0;align=left;spacingLeft=6;fontSize=14;verticalAlign=middle;strokeColor=#6c8ebf;" vertex="1" parent="GWjoIAEa0WmcNTmmGCFZ-222">
          <mxGeometry x="30" width="220" height="30" as="geometry">
            <mxRectangle width="220" height="30" as="alternateBounds" />
          </mxGeometry>
        </mxCell>
        <mxCell id="GWjoIAEa0WmcNTmmGCFZ-225" value="" style="shape=partialRectangle;collapsible=0;dropTarget=0;pointerEvents=0;fillColor=#dae8fc;points=[[0,0.5],[1,0.5]];portConstraint=eastwest;top=0;left=0;right=0;bottom=0;fontSize=14;verticalAlign=middle;align=left;strokeColor=#6c8ebf;" vertex="1" parent="GWjoIAEa0WmcNTmmGCFZ-191">
          <mxGeometry y="392" width="250" height="30" as="geometry" />
        </mxCell>
        <mxCell id="GWjoIAEa0WmcNTmmGCFZ-226" value="" style="shape=partialRectangle;overflow=hidden;connectable=0;fillColor=#dae8fc;top=0;left=0;bottom=0;right=0;fontSize=14;verticalAlign=middle;align=left;strokeColor=#6c8ebf;" vertex="1" parent="GWjoIAEa0WmcNTmmGCFZ-225">
          <mxGeometry width="30" height="30" as="geometry">
            <mxRectangle width="30" height="30" as="alternateBounds" />
          </mxGeometry>
        </mxCell>
        <mxCell id="GWjoIAEa0WmcNTmmGCFZ-227" value="Address" style="shape=partialRectangle;overflow=hidden;connectable=0;fillColor=#dae8fc;top=0;left=0;bottom=0;right=0;align=left;spacingLeft=6;fontSize=14;verticalAlign=middle;strokeColor=#6c8ebf;" vertex="1" parent="GWjoIAEa0WmcNTmmGCFZ-225">
          <mxGeometry x="30" width="220" height="30" as="geometry">
            <mxRectangle width="220" height="30" as="alternateBounds" />
          </mxGeometry>
        </mxCell>
        <mxCell id="GWjoIAEa0WmcNTmmGCFZ-228" value="Sales Fact Table" style="shape=table;startSize=35;container=1;collapsible=1;childLayout=tableLayout;fixedRows=1;rowLines=0;fontStyle=1;align=center;resizeLast=1;fontSize=14;fillColor=#dae8fc;strokeColor=#6c8ebf;" vertex="1" parent="1">
          <mxGeometry x="-1403.96" y="-491" width="248.4191810344828" height="515" as="geometry" />
        </mxCell>
        <mxCell id="GWjoIAEa0WmcNTmmGCFZ-229" value="" style="shape=partialRectangle;collapsible=0;dropTarget=0;pointerEvents=0;fillColor=#dae8fc;points=[[0,0.5],[1,0.5]];portConstraint=eastwest;top=0;left=0;right=0;bottom=1;fontSize=14;strokeColor=#6c8ebf;" vertex="1" parent="GWjoIAEa0WmcNTmmGCFZ-228">
          <mxGeometry y="35" width="248.4191810344828" height="30" as="geometry" />
        </mxCell>
        <mxCell id="GWjoIAEa0WmcNTmmGCFZ-230" value="PK" style="shape=partialRectangle;overflow=hidden;connectable=0;fillColor=#dae8fc;top=0;left=0;bottom=0;right=0;fontStyle=1;fontSize=14;strokeColor=#6c8ebf;" vertex="1" parent="GWjoIAEa0WmcNTmmGCFZ-229">
          <mxGeometry width="30" height="30" as="geometry">
            <mxRectangle width="30" height="30" as="alternateBounds" />
          </mxGeometry>
        </mxCell>
        <mxCell id="GWjoIAEa0WmcNTmmGCFZ-231" value="Order_SK" style="shape=partialRectangle;overflow=hidden;connectable=0;fillColor=#dae8fc;top=0;left=0;bottom=0;right=0;align=left;spacingLeft=6;fontStyle=5;fontSize=14;strokeColor=#6c8ebf;" vertex="1" parent="GWjoIAEa0WmcNTmmGCFZ-229">
          <mxGeometry x="30" width="218.4191810344828" height="30" as="geometry">
            <mxRectangle width="218.4191810344828" height="30" as="alternateBounds" />
          </mxGeometry>
        </mxCell>
        <mxCell id="GWjoIAEa0WmcNTmmGCFZ-320" value="" style="shape=partialRectangle;collapsible=0;dropTarget=0;pointerEvents=0;fillColor=#dae8fc;points=[[0,0.5],[1,0.5]];portConstraint=eastwest;top=0;left=0;right=0;bottom=0;fontSize=14;strokeColor=#6c8ebf;" vertex="1" parent="GWjoIAEa0WmcNTmmGCFZ-228">
          <mxGeometry y="65" width="248.4191810344828" height="30" as="geometry" />
        </mxCell>
        <mxCell id="GWjoIAEa0WmcNTmmGCFZ-321" value="" style="shape=partialRectangle;overflow=hidden;connectable=0;fillColor=#dae8fc;top=0;left=0;bottom=0;right=0;fontSize=14;strokeColor=#6c8ebf;" vertex="1" parent="GWjoIAEa0WmcNTmmGCFZ-320">
          <mxGeometry width="30" height="30" as="geometry">
            <mxRectangle width="30" height="30" as="alternateBounds" />
          </mxGeometry>
        </mxCell>
        <mxCell id="GWjoIAEa0WmcNTmmGCFZ-322" value="Shipper_FK" style="shape=partialRectangle;overflow=hidden;connectable=0;fillColor=#dae8fc;top=0;left=0;bottom=0;right=0;align=left;spacingLeft=6;fontSize=14;strokeColor=#6c8ebf;" vertex="1" parent="GWjoIAEa0WmcNTmmGCFZ-320">
          <mxGeometry x="30" width="218.4191810344828" height="30" as="geometry">
            <mxRectangle width="218.4191810344828" height="30" as="alternateBounds" />
          </mxGeometry>
        </mxCell>
        <mxCell id="GWjoIAEa0WmcNTmmGCFZ-308" value="" style="shape=partialRectangle;collapsible=0;dropTarget=0;pointerEvents=0;fillColor=#dae8fc;points=[[0,0.5],[1,0.5]];portConstraint=eastwest;top=0;left=0;right=0;bottom=0;fontSize=14;strokeColor=#6c8ebf;" vertex="1" parent="GWjoIAEa0WmcNTmmGCFZ-228">
          <mxGeometry y="95" width="248.4191810344828" height="30" as="geometry" />
        </mxCell>
        <mxCell id="GWjoIAEa0WmcNTmmGCFZ-309" value="" style="shape=partialRectangle;overflow=hidden;connectable=0;fillColor=#dae8fc;top=0;left=0;bottom=0;right=0;fontSize=14;strokeColor=#6c8ebf;" vertex="1" parent="GWjoIAEa0WmcNTmmGCFZ-308">
          <mxGeometry width="30" height="30" as="geometry">
            <mxRectangle width="30" height="30" as="alternateBounds" />
          </mxGeometry>
        </mxCell>
        <mxCell id="GWjoIAEa0WmcNTmmGCFZ-310" value="Territory_FK" style="shape=partialRectangle;overflow=hidden;connectable=0;fillColor=#dae8fc;top=0;left=0;bottom=0;right=0;align=left;spacingLeft=6;fontSize=14;strokeColor=#6c8ebf;" vertex="1" parent="GWjoIAEa0WmcNTmmGCFZ-308">
          <mxGeometry x="30" width="218.4191810344828" height="30" as="geometry">
            <mxRectangle width="218.4191810344828" height="30" as="alternateBounds" />
          </mxGeometry>
        </mxCell>
        <mxCell id="GWjoIAEa0WmcNTmmGCFZ-366" value="" style="shape=partialRectangle;collapsible=0;dropTarget=0;pointerEvents=0;fillColor=#dae8fc;points=[[0,0.5],[1,0.5]];portConstraint=eastwest;top=0;left=0;right=0;bottom=0;fontSize=14;strokeColor=#6c8ebf;" vertex="1" parent="GWjoIAEa0WmcNTmmGCFZ-228">
          <mxGeometry y="125" width="248.4191810344828" height="30" as="geometry" />
        </mxCell>
        <mxCell id="GWjoIAEa0WmcNTmmGCFZ-367" value="" style="shape=partialRectangle;overflow=hidden;connectable=0;fillColor=#dae8fc;top=0;left=0;bottom=0;right=0;fontSize=14;strokeColor=#6c8ebf;" vertex="1" parent="GWjoIAEa0WmcNTmmGCFZ-366">
          <mxGeometry width="30" height="30" as="geometry">
            <mxRectangle width="30" height="30" as="alternateBounds" />
          </mxGeometry>
        </mxCell>
        <mxCell id="GWjoIAEa0WmcNTmmGCFZ-368" value="ShipInfo_FK" style="shape=partialRectangle;overflow=hidden;connectable=0;fillColor=#dae8fc;top=0;left=0;bottom=0;right=0;align=left;spacingLeft=6;fontSize=14;strokeColor=#6c8ebf;" vertex="1" parent="GWjoIAEa0WmcNTmmGCFZ-366">
          <mxGeometry x="30" width="218.4191810344828" height="30" as="geometry">
            <mxRectangle width="218.4191810344828" height="30" as="alternateBounds" />
          </mxGeometry>
        </mxCell>
        <mxCell id="GWjoIAEa0WmcNTmmGCFZ-317" value="" style="shape=partialRectangle;collapsible=0;dropTarget=0;pointerEvents=0;fillColor=#dae8fc;points=[[0,0.5],[1,0.5]];portConstraint=eastwest;top=0;left=0;right=0;bottom=0;fontSize=14;strokeColor=#6c8ebf;" vertex="1" parent="GWjoIAEa0WmcNTmmGCFZ-228">
          <mxGeometry y="155" width="248.4191810344828" height="30" as="geometry" />
        </mxCell>
        <mxCell id="GWjoIAEa0WmcNTmmGCFZ-318" value="" style="shape=partialRectangle;overflow=hidden;connectable=0;fillColor=#dae8fc;top=0;left=0;bottom=0;right=0;fontSize=14;strokeColor=#6c8ebf;" vertex="1" parent="GWjoIAEa0WmcNTmmGCFZ-317">
          <mxGeometry width="30" height="30" as="geometry">
            <mxRectangle width="30" height="30" as="alternateBounds" />
          </mxGeometry>
        </mxCell>
        <mxCell id="GWjoIAEa0WmcNTmmGCFZ-319" value="Supplier_FK" style="shape=partialRectangle;overflow=hidden;connectable=0;fillColor=#dae8fc;top=0;left=0;bottom=0;right=0;align=left;spacingLeft=6;fontSize=14;strokeColor=#6c8ebf;" vertex="1" parent="GWjoIAEa0WmcNTmmGCFZ-317">
          <mxGeometry x="30" width="218.4191810344828" height="30" as="geometry">
            <mxRectangle width="218.4191810344828" height="30" as="alternateBounds" />
          </mxGeometry>
        </mxCell>
        <mxCell id="GWjoIAEa0WmcNTmmGCFZ-311" value="" style="shape=partialRectangle;collapsible=0;dropTarget=0;pointerEvents=0;fillColor=#dae8fc;points=[[0,0.5],[1,0.5]];portConstraint=eastwest;top=0;left=0;right=0;bottom=0;fontSize=14;strokeColor=#6c8ebf;" vertex="1" parent="GWjoIAEa0WmcNTmmGCFZ-228">
          <mxGeometry y="185" width="248.4191810344828" height="30" as="geometry" />
        </mxCell>
        <mxCell id="GWjoIAEa0WmcNTmmGCFZ-312" value="" style="shape=partialRectangle;overflow=hidden;connectable=0;fillColor=#dae8fc;top=0;left=0;bottom=0;right=0;fontSize=14;strokeColor=#6c8ebf;" vertex="1" parent="GWjoIAEa0WmcNTmmGCFZ-311">
          <mxGeometry width="30" height="30" as="geometry">
            <mxRectangle width="30" height="30" as="alternateBounds" />
          </mxGeometry>
        </mxCell>
        <mxCell id="GWjoIAEa0WmcNTmmGCFZ-313" value="Employee_FK" style="shape=partialRectangle;overflow=hidden;connectable=0;fillColor=#dae8fc;top=0;left=0;bottom=0;right=0;align=left;spacingLeft=6;fontSize=14;strokeColor=#6c8ebf;" vertex="1" parent="GWjoIAEa0WmcNTmmGCFZ-311">
          <mxGeometry x="30" width="218.4191810344828" height="30" as="geometry">
            <mxRectangle width="218.4191810344828" height="30" as="alternateBounds" />
          </mxGeometry>
        </mxCell>
        <mxCell id="GWjoIAEa0WmcNTmmGCFZ-314" value="" style="shape=partialRectangle;collapsible=0;dropTarget=0;pointerEvents=0;fillColor=#dae8fc;points=[[0,0.5],[1,0.5]];portConstraint=eastwest;top=0;left=0;right=0;bottom=0;fontSize=14;strokeColor=#6c8ebf;" vertex="1" parent="GWjoIAEa0WmcNTmmGCFZ-228">
          <mxGeometry y="215" width="248.4191810344828" height="30" as="geometry" />
        </mxCell>
        <mxCell id="GWjoIAEa0WmcNTmmGCFZ-315" value="" style="shape=partialRectangle;overflow=hidden;connectable=0;fillColor=#dae8fc;top=0;left=0;bottom=0;right=0;fontSize=14;strokeColor=#6c8ebf;" vertex="1" parent="GWjoIAEa0WmcNTmmGCFZ-314">
          <mxGeometry width="30" height="30" as="geometry">
            <mxRectangle width="30" height="30" as="alternateBounds" />
          </mxGeometry>
        </mxCell>
        <mxCell id="GWjoIAEa0WmcNTmmGCFZ-316" value="Product_FK" style="shape=partialRectangle;overflow=hidden;connectable=0;fillColor=#dae8fc;top=0;left=0;bottom=0;right=0;align=left;spacingLeft=6;fontSize=14;strokeColor=#6c8ebf;" vertex="1" parent="GWjoIAEa0WmcNTmmGCFZ-314">
          <mxGeometry x="30" width="218.4191810344828" height="30" as="geometry">
            <mxRectangle width="218.4191810344828" height="30" as="alternateBounds" />
          </mxGeometry>
        </mxCell>
        <mxCell id="GWjoIAEa0WmcNTmmGCFZ-235" value="" style="shape=partialRectangle;collapsible=0;dropTarget=0;pointerEvents=0;fillColor=#dae8fc;points=[[0,0.5],[1,0.5]];portConstraint=eastwest;top=0;left=0;right=0;bottom=0;fontSize=14;strokeColor=#6c8ebf;" vertex="1" parent="GWjoIAEa0WmcNTmmGCFZ-228">
          <mxGeometry y="245" width="248.4191810344828" height="30" as="geometry" />
        </mxCell>
        <mxCell id="GWjoIAEa0WmcNTmmGCFZ-236" value="" style="shape=partialRectangle;overflow=hidden;connectable=0;fillColor=#dae8fc;top=0;left=0;bottom=0;right=0;fontSize=14;strokeColor=#6c8ebf;" vertex="1" parent="GWjoIAEa0WmcNTmmGCFZ-235">
          <mxGeometry width="30" height="30" as="geometry">
            <mxRectangle width="30" height="30" as="alternateBounds" />
          </mxGeometry>
        </mxCell>
        <mxCell id="GWjoIAEa0WmcNTmmGCFZ-237" value="Customer_FK" style="shape=partialRectangle;overflow=hidden;connectable=0;fillColor=#dae8fc;top=0;left=0;bottom=0;right=0;align=left;spacingLeft=6;fontSize=14;strokeColor=#6c8ebf;" vertex="1" parent="GWjoIAEa0WmcNTmmGCFZ-235">
          <mxGeometry x="30" width="218.4191810344828" height="30" as="geometry">
            <mxRectangle width="218.4191810344828" height="30" as="alternateBounds" />
          </mxGeometry>
        </mxCell>
        <mxCell id="GWjoIAEa0WmcNTmmGCFZ-323" value="" style="shape=partialRectangle;collapsible=0;dropTarget=0;pointerEvents=0;fillColor=#dae8fc;points=[[0,0.5],[1,0.5]];portConstraint=eastwest;top=0;left=0;right=0;bottom=0;fontSize=14;strokeColor=#6c8ebf;" vertex="1" parent="GWjoIAEa0WmcNTmmGCFZ-228">
          <mxGeometry y="275" width="248.4191810344828" height="30" as="geometry" />
        </mxCell>
        <mxCell id="GWjoIAEa0WmcNTmmGCFZ-324" value="" style="shape=partialRectangle;overflow=hidden;connectable=0;fillColor=#dae8fc;top=0;left=0;bottom=0;right=0;fontSize=14;strokeColor=#6c8ebf;" vertex="1" parent="GWjoIAEa0WmcNTmmGCFZ-323">
          <mxGeometry width="30" height="30" as="geometry">
            <mxRectangle width="30" height="30" as="alternateBounds" />
          </mxGeometry>
        </mxCell>
        <mxCell id="GWjoIAEa0WmcNTmmGCFZ-325" value="OrderDate_Key" style="shape=partialRectangle;overflow=hidden;connectable=0;fillColor=#dae8fc;top=0;left=0;bottom=0;right=0;align=left;spacingLeft=6;fontSize=14;strokeColor=#6c8ebf;" vertex="1" parent="GWjoIAEa0WmcNTmmGCFZ-323">
          <mxGeometry x="30" width="218.4191810344828" height="30" as="geometry">
            <mxRectangle width="218.4191810344828" height="30" as="alternateBounds" />
          </mxGeometry>
        </mxCell>
        <mxCell id="GWjoIAEa0WmcNTmmGCFZ-326" value="" style="shape=partialRectangle;collapsible=0;dropTarget=0;pointerEvents=0;fillColor=#dae8fc;points=[[0,0.5],[1,0.5]];portConstraint=eastwest;top=0;left=0;right=0;bottom=0;fontSize=14;strokeColor=#6c8ebf;" vertex="1" parent="GWjoIAEa0WmcNTmmGCFZ-228">
          <mxGeometry y="305" width="248.4191810344828" height="30" as="geometry" />
        </mxCell>
        <mxCell id="GWjoIAEa0WmcNTmmGCFZ-327" value="" style="shape=partialRectangle;overflow=hidden;connectable=0;fillColor=#dae8fc;top=0;left=0;bottom=0;right=0;fontSize=14;strokeColor=#6c8ebf;" vertex="1" parent="GWjoIAEa0WmcNTmmGCFZ-326">
          <mxGeometry width="30" height="30" as="geometry">
            <mxRectangle width="30" height="30" as="alternateBounds" />
          </mxGeometry>
        </mxCell>
        <mxCell id="GWjoIAEa0WmcNTmmGCFZ-328" value="RequiredDate_Key" style="shape=partialRectangle;overflow=hidden;connectable=0;fillColor=#dae8fc;top=0;left=0;bottom=0;right=0;align=left;spacingLeft=6;fontSize=14;strokeColor=#6c8ebf;" vertex="1" parent="GWjoIAEa0WmcNTmmGCFZ-326">
          <mxGeometry x="30" width="218.4191810344828" height="30" as="geometry">
            <mxRectangle width="218.4191810344828" height="30" as="alternateBounds" />
          </mxGeometry>
        </mxCell>
        <mxCell id="GWjoIAEa0WmcNTmmGCFZ-363" value="" style="shape=partialRectangle;collapsible=0;dropTarget=0;pointerEvents=0;fillColor=#dae8fc;points=[[0,0.5],[1,0.5]];portConstraint=eastwest;top=0;left=0;right=0;bottom=0;fontSize=14;strokeColor=#6c8ebf;" vertex="1" parent="GWjoIAEa0WmcNTmmGCFZ-228">
          <mxGeometry y="335" width="248.4191810344828" height="30" as="geometry" />
        </mxCell>
        <mxCell id="GWjoIAEa0WmcNTmmGCFZ-364" value="" style="shape=partialRectangle;overflow=hidden;connectable=0;fillColor=#dae8fc;top=0;left=0;bottom=0;right=0;fontSize=14;strokeColor=#6c8ebf;" vertex="1" parent="GWjoIAEa0WmcNTmmGCFZ-363">
          <mxGeometry width="30" height="30" as="geometry">
            <mxRectangle width="30" height="30" as="alternateBounds" />
          </mxGeometry>
        </mxCell>
        <mxCell id="GWjoIAEa0WmcNTmmGCFZ-365" value="ShippedDate_Key" style="shape=partialRectangle;overflow=hidden;connectable=0;fillColor=#dae8fc;top=0;left=0;bottom=0;right=0;align=left;spacingLeft=6;fontSize=14;strokeColor=#6c8ebf;" vertex="1" parent="GWjoIAEa0WmcNTmmGCFZ-363">
          <mxGeometry x="30" width="218.4191810344828" height="30" as="geometry">
            <mxRectangle width="218.4191810344828" height="30" as="alternateBounds" />
          </mxGeometry>
        </mxCell>
        <mxCell id="GWjoIAEa0WmcNTmmGCFZ-369" value="" style="shape=partialRectangle;collapsible=0;dropTarget=0;pointerEvents=0;fillColor=#dae8fc;points=[[0,0.5],[1,0.5]];portConstraint=eastwest;top=0;left=0;right=0;bottom=0;fontSize=14;strokeColor=#6c8ebf;" vertex="1" parent="GWjoIAEa0WmcNTmmGCFZ-228">
          <mxGeometry y="365" width="248.4191810344828" height="30" as="geometry" />
        </mxCell>
        <mxCell id="GWjoIAEa0WmcNTmmGCFZ-370" value="" style="shape=partialRectangle;overflow=hidden;connectable=0;fillColor=#dae8fc;top=0;left=0;bottom=0;right=0;fontSize=14;strokeColor=#6c8ebf;" vertex="1" parent="GWjoIAEa0WmcNTmmGCFZ-369">
          <mxGeometry width="30" height="30" as="geometry">
            <mxRectangle width="30" height="30" as="alternateBounds" />
          </mxGeometry>
        </mxCell>
        <mxCell id="GWjoIAEa0WmcNTmmGCFZ-371" value="UnitPrice" style="shape=partialRectangle;overflow=hidden;connectable=0;fillColor=#dae8fc;top=0;left=0;bottom=0;right=0;align=left;spacingLeft=6;fontSize=14;strokeColor=#6c8ebf;" vertex="1" parent="GWjoIAEa0WmcNTmmGCFZ-369">
          <mxGeometry x="30" width="218.4191810344828" height="30" as="geometry">
            <mxRectangle width="218.4191810344828" height="30" as="alternateBounds" />
          </mxGeometry>
        </mxCell>
        <mxCell id="GWjoIAEa0WmcNTmmGCFZ-372" value="" style="shape=partialRectangle;collapsible=0;dropTarget=0;pointerEvents=0;fillColor=#dae8fc;points=[[0,0.5],[1,0.5]];portConstraint=eastwest;top=0;left=0;right=0;bottom=0;fontSize=14;strokeColor=#6c8ebf;" vertex="1" parent="GWjoIAEa0WmcNTmmGCFZ-228">
          <mxGeometry y="395" width="248.4191810344828" height="30" as="geometry" />
        </mxCell>
        <mxCell id="GWjoIAEa0WmcNTmmGCFZ-373" value="" style="shape=partialRectangle;overflow=hidden;connectable=0;fillColor=#dae8fc;top=0;left=0;bottom=0;right=0;fontSize=14;strokeColor=#6c8ebf;" vertex="1" parent="GWjoIAEa0WmcNTmmGCFZ-372">
          <mxGeometry width="30" height="30" as="geometry">
            <mxRectangle width="30" height="30" as="alternateBounds" />
          </mxGeometry>
        </mxCell>
        <mxCell id="GWjoIAEa0WmcNTmmGCFZ-374" value="Total_Cost" style="shape=partialRectangle;overflow=hidden;connectable=0;fillColor=#dae8fc;top=0;left=0;bottom=0;right=0;align=left;spacingLeft=6;fontSize=14;strokeColor=#6c8ebf;" vertex="1" parent="GWjoIAEa0WmcNTmmGCFZ-372">
          <mxGeometry x="30" width="218.4191810344828" height="30" as="geometry">
            <mxRectangle width="218.4191810344828" height="30" as="alternateBounds" />
          </mxGeometry>
        </mxCell>
        <mxCell id="GWjoIAEa0WmcNTmmGCFZ-375" value="" style="shape=partialRectangle;collapsible=0;dropTarget=0;pointerEvents=0;fillColor=#dae8fc;points=[[0,0.5],[1,0.5]];portConstraint=eastwest;top=0;left=0;right=0;bottom=0;fontSize=14;strokeColor=#6c8ebf;" vertex="1" parent="GWjoIAEa0WmcNTmmGCFZ-228">
          <mxGeometry y="425" width="248.4191810344828" height="30" as="geometry" />
        </mxCell>
        <mxCell id="GWjoIAEa0WmcNTmmGCFZ-376" value="" style="shape=partialRectangle;overflow=hidden;connectable=0;fillColor=#dae8fc;top=0;left=0;bottom=0;right=0;fontSize=14;strokeColor=#6c8ebf;" vertex="1" parent="GWjoIAEa0WmcNTmmGCFZ-375">
          <mxGeometry width="30" height="30" as="geometry">
            <mxRectangle width="30" height="30" as="alternateBounds" />
          </mxGeometry>
        </mxCell>
        <mxCell id="GWjoIAEa0WmcNTmmGCFZ-377" value="Freight" style="shape=partialRectangle;overflow=hidden;connectable=0;fillColor=#dae8fc;top=0;left=0;bottom=0;right=0;align=left;spacingLeft=6;fontSize=14;strokeColor=#6c8ebf;" vertex="1" parent="GWjoIAEa0WmcNTmmGCFZ-375">
          <mxGeometry x="30" width="218.4191810344828" height="30" as="geometry">
            <mxRectangle width="218.4191810344828" height="30" as="alternateBounds" />
          </mxGeometry>
        </mxCell>
        <mxCell id="GWjoIAEa0WmcNTmmGCFZ-238" value="" style="shape=partialRectangle;collapsible=0;dropTarget=0;pointerEvents=0;fillColor=#dae8fc;points=[[0,0.5],[1,0.5]];portConstraint=eastwest;top=0;left=0;right=0;bottom=0;fontSize=14;strokeColor=#6c8ebf;" vertex="1" parent="GWjoIAEa0WmcNTmmGCFZ-228">
          <mxGeometry y="455" width="248.4191810344828" height="30" as="geometry" />
        </mxCell>
        <mxCell id="GWjoIAEa0WmcNTmmGCFZ-239" value="" style="shape=partialRectangle;overflow=hidden;connectable=0;fillColor=#dae8fc;top=0;left=0;bottom=0;right=0;fontSize=14;strokeColor=#6c8ebf;" vertex="1" parent="GWjoIAEa0WmcNTmmGCFZ-238">
          <mxGeometry width="30" height="30" as="geometry">
            <mxRectangle width="30" height="30" as="alternateBounds" />
          </mxGeometry>
        </mxCell>
        <mxCell id="GWjoIAEa0WmcNTmmGCFZ-240" value="Quantity" style="shape=partialRectangle;overflow=hidden;connectable=0;fillColor=#dae8fc;top=0;left=0;bottom=0;right=0;align=left;spacingLeft=6;fontSize=14;strokeColor=#6c8ebf;" vertex="1" parent="GWjoIAEa0WmcNTmmGCFZ-238">
          <mxGeometry x="30" width="218.4191810344828" height="30" as="geometry">
            <mxRectangle width="218.4191810344828" height="30" as="alternateBounds" />
          </mxGeometry>
        </mxCell>
        <mxCell id="GWjoIAEa0WmcNTmmGCFZ-241" value="" style="shape=partialRectangle;collapsible=0;dropTarget=0;pointerEvents=0;fillColor=#dae8fc;points=[[0,0.5],[1,0.5]];portConstraint=eastwest;top=0;left=0;right=0;bottom=0;fontSize=14;strokeColor=#6c8ebf;" vertex="1" parent="GWjoIAEa0WmcNTmmGCFZ-228">
          <mxGeometry y="485" width="248.4191810344828" height="30" as="geometry" />
        </mxCell>
        <mxCell id="GWjoIAEa0WmcNTmmGCFZ-242" value="" style="shape=partialRectangle;overflow=hidden;connectable=0;fillColor=#dae8fc;top=0;left=0;bottom=0;right=0;fontSize=14;strokeColor=#6c8ebf;" vertex="1" parent="GWjoIAEa0WmcNTmmGCFZ-241">
          <mxGeometry width="30" height="30" as="geometry">
            <mxRectangle width="30" height="30" as="alternateBounds" />
          </mxGeometry>
        </mxCell>
        <mxCell id="GWjoIAEa0WmcNTmmGCFZ-243" value="Discount" style="shape=partialRectangle;overflow=hidden;connectable=0;fillColor=#dae8fc;top=0;left=0;bottom=0;right=0;align=left;spacingLeft=6;fontSize=14;strokeColor=#6c8ebf;" vertex="1" parent="GWjoIAEa0WmcNTmmGCFZ-241">
          <mxGeometry x="30" width="218.4191810344828" height="30" as="geometry">
            <mxRectangle width="218.4191810344828" height="30" as="alternateBounds" />
          </mxGeometry>
        </mxCell>
        <mxCell id="GWjoIAEa0WmcNTmmGCFZ-383" style="edgeStyle=orthogonalEdgeStyle;rounded=0;orthogonalLoop=1;jettySize=auto;html=1;exitX=1;exitY=0.5;exitDx=0;exitDy=0;fillColor=#dae8fc;strokeColor=#6c8ebf;" edge="1" parent="1" source="GWjoIAEa0WmcNTmmGCFZ-192" target="GWjoIAEa0WmcNTmmGCFZ-317">
          <mxGeometry relative="1" as="geometry" />
        </mxCell>
        <mxCell id="GWjoIAEa0WmcNTmmGCFZ-385" style="edgeStyle=orthogonalEdgeStyle;rounded=0;orthogonalLoop=1;jettySize=auto;html=1;exitX=0;exitY=0.5;exitDx=0;exitDy=0;entryX=0;entryY=0.5;entryDx=0;entryDy=0;fillColor=#dae8fc;strokeColor=#6c8ebf;" edge="1" parent="1" source="GWjoIAEa0WmcNTmmGCFZ-88" target="GWjoIAEa0WmcNTmmGCFZ-235">
          <mxGeometry relative="1" as="geometry" />
        </mxCell>
        <mxCell id="GWjoIAEa0WmcNTmmGCFZ-387" style="edgeStyle=orthogonalEdgeStyle;rounded=0;orthogonalLoop=1;jettySize=auto;html=1;entryX=1;entryY=0.5;entryDx=0;entryDy=0;fillColor=#dae8fc;strokeColor=#6c8ebf;" edge="1" parent="1" source="GWjoIAEa0WmcNTmmGCFZ-139" target="GWjoIAEa0WmcNTmmGCFZ-366">
          <mxGeometry relative="1" as="geometry" />
        </mxCell>
        <mxCell id="GWjoIAEa0WmcNTmmGCFZ-388" style="edgeStyle=orthogonalEdgeStyle;rounded=0;orthogonalLoop=1;jettySize=auto;html=1;exitX=0;exitY=0.5;exitDx=0;exitDy=0;entryX=0;entryY=0.5;entryDx=0;entryDy=0;fillColor=#dae8fc;strokeColor=#6c8ebf;" edge="1" parent="1" source="GWjoIAEa0WmcNTmmGCFZ-182" target="GWjoIAEa0WmcNTmmGCFZ-320">
          <mxGeometry relative="1" as="geometry" />
        </mxCell>
        <mxCell id="pSy5dS7yLw_mW9jkfrUr-1" value="Date_Dim" style="shape=table;startSize=26;container=1;collapsible=1;childLayout=tableLayout;fixedRows=1;rowLines=0;fontStyle=1;align=center;resizeLast=1;fontSize=14;fillColor=#dae8fc;strokeColor=#6c8ebf;" vertex="1" parent="1">
          <mxGeometry x="-1071" y="57" width="249.51" height="475" as="geometry" />
        </mxCell>
        <mxCell id="pSy5dS7yLw_mW9jkfrUr-2" value="" style="shape=partialRectangle;collapsible=0;dropTarget=0;pointerEvents=0;fillColor=#dae8fc;points=[[0,0.5],[1,0.5]];portConstraint=eastwest;top=0;left=0;right=0;bottom=1;fontSize=14;strokeColor=#6c8ebf;" vertex="1" parent="pSy5dS7yLw_mW9jkfrUr-1">
          <mxGeometry y="26" width="249.51" height="30" as="geometry" />
        </mxCell>
        <mxCell id="pSy5dS7yLw_mW9jkfrUr-3" value="PK" style="shape=partialRectangle;overflow=hidden;connectable=0;fillColor=#dae8fc;top=0;left=0;bottom=0;right=0;fontStyle=1;fontSize=14;strokeColor=#6c8ebf;" vertex="1" parent="pSy5dS7yLw_mW9jkfrUr-2">
          <mxGeometry width="30" height="30" as="geometry">
            <mxRectangle width="30" height="30" as="alternateBounds" />
          </mxGeometry>
        </mxCell>
        <mxCell id="pSy5dS7yLw_mW9jkfrUr-4" value="Date_SK" style="shape=partialRectangle;overflow=hidden;connectable=0;fillColor=#dae8fc;top=0;left=0;bottom=0;right=0;align=left;spacingLeft=6;fontStyle=5;fontSize=14;strokeColor=#6c8ebf;" vertex="1" parent="pSy5dS7yLw_mW9jkfrUr-2">
          <mxGeometry x="30" width="219.51" height="30" as="geometry">
            <mxRectangle width="219.51" height="30" as="alternateBounds" />
          </mxGeometry>
        </mxCell>
        <mxCell id="pSy5dS7yLw_mW9jkfrUr-14" value="" style="shape=partialRectangle;collapsible=0;dropTarget=0;pointerEvents=0;fillColor=#dae8fc;points=[[0,0.5],[1,0.5]];portConstraint=eastwest;top=0;left=0;right=0;bottom=0;fontSize=14;strokeColor=#6c8ebf;" vertex="1" parent="pSy5dS7yLw_mW9jkfrUr-1">
          <mxGeometry y="56" width="249.51" height="30" as="geometry" />
        </mxCell>
        <mxCell id="pSy5dS7yLw_mW9jkfrUr-15" value="" style="shape=partialRectangle;overflow=hidden;connectable=0;fillColor=#dae8fc;top=0;left=0;bottom=0;right=0;fontSize=14;strokeColor=#6c8ebf;" vertex="1" parent="pSy5dS7yLw_mW9jkfrUr-14">
          <mxGeometry width="30" height="30" as="geometry">
            <mxRectangle width="30" height="30" as="alternateBounds" />
          </mxGeometry>
        </mxCell>
        <mxCell id="pSy5dS7yLw_mW9jkfrUr-16" value="Date" style="shape=partialRectangle;overflow=hidden;connectable=0;fillColor=#dae8fc;top=0;left=0;bottom=0;right=0;align=left;spacingLeft=6;fontSize=14;strokeColor=#6c8ebf;" vertex="1" parent="pSy5dS7yLw_mW9jkfrUr-14">
          <mxGeometry x="30" width="219.51" height="30" as="geometry">
            <mxRectangle width="219.51" height="30" as="alternateBounds" />
          </mxGeometry>
        </mxCell>
        <mxCell id="M_Y6TEZz4hXQEvN3mPzn-53" value="" style="shape=partialRectangle;collapsible=0;dropTarget=0;pointerEvents=0;fillColor=#dae8fc;points=[[0,0.5],[1,0.5]];portConstraint=eastwest;top=0;left=0;right=0;bottom=0;fontSize=14;strokeColor=#6c8ebf;" vertex="1" parent="pSy5dS7yLw_mW9jkfrUr-1">
          <mxGeometry y="86" width="249.51" height="30" as="geometry" />
        </mxCell>
        <mxCell id="M_Y6TEZz4hXQEvN3mPzn-54" value="" style="shape=partialRectangle;overflow=hidden;connectable=0;fillColor=#dae8fc;top=0;left=0;bottom=0;right=0;fontSize=14;strokeColor=#6c8ebf;" vertex="1" parent="M_Y6TEZz4hXQEvN3mPzn-53">
          <mxGeometry width="30" height="30" as="geometry">
            <mxRectangle width="30" height="30" as="alternateBounds" />
          </mxGeometry>
        </mxCell>
        <mxCell id="M_Y6TEZz4hXQEvN3mPzn-55" value="StandardDate" style="shape=partialRectangle;overflow=hidden;connectable=0;fillColor=#dae8fc;top=0;left=0;bottom=0;right=0;align=left;spacingLeft=6;fontSize=14;strokeColor=#6c8ebf;" vertex="1" parent="M_Y6TEZz4hXQEvN3mPzn-53">
          <mxGeometry x="30" width="219.51" height="30" as="geometry">
            <mxRectangle width="219.51" height="30" as="alternateBounds" />
          </mxGeometry>
        </mxCell>
        <mxCell id="pSy5dS7yLw_mW9jkfrUr-5" value="" style="shape=partialRectangle;collapsible=0;dropTarget=0;pointerEvents=0;fillColor=#dae8fc;points=[[0,0.5],[1,0.5]];portConstraint=eastwest;top=0;left=0;right=0;bottom=0;fontSize=14;strokeColor=#6c8ebf;" vertex="1" parent="pSy5dS7yLw_mW9jkfrUr-1">
          <mxGeometry y="116" width="249.51" height="29" as="geometry" />
        </mxCell>
        <mxCell id="pSy5dS7yLw_mW9jkfrUr-6" value="" style="shape=partialRectangle;overflow=hidden;connectable=0;fillColor=#dae8fc;top=0;left=0;bottom=0;right=0;fontSize=14;strokeColor=#6c8ebf;" vertex="1" parent="pSy5dS7yLw_mW9jkfrUr-5">
          <mxGeometry width="30" height="29" as="geometry">
            <mxRectangle width="30" height="29" as="alternateBounds" />
          </mxGeometry>
        </mxCell>
        <mxCell id="pSy5dS7yLw_mW9jkfrUr-7" value="Year" style="shape=partialRectangle;overflow=hidden;connectable=0;fillColor=#dae8fc;top=0;left=0;bottom=0;right=0;align=left;spacingLeft=6;fontSize=14;fontStyle=0;strokeColor=#6c8ebf;" vertex="1" parent="pSy5dS7yLw_mW9jkfrUr-5">
          <mxGeometry x="30" width="219.51" height="29" as="geometry">
            <mxRectangle width="219.51" height="29" as="alternateBounds" />
          </mxGeometry>
        </mxCell>
        <mxCell id="pSy5dS7yLw_mW9jkfrUr-8" value="" style="shape=partialRectangle;collapsible=0;dropTarget=0;pointerEvents=0;fillColor=#dae8fc;points=[[0,0.5],[1,0.5]];portConstraint=eastwest;top=0;left=0;right=0;bottom=0;fontSize=14;strokeColor=#6c8ebf;" vertex="1" parent="pSy5dS7yLw_mW9jkfrUr-1">
          <mxGeometry y="145" width="249.51" height="30" as="geometry" />
        </mxCell>
        <mxCell id="pSy5dS7yLw_mW9jkfrUr-9" value="" style="shape=partialRectangle;overflow=hidden;connectable=0;fillColor=#dae8fc;top=0;left=0;bottom=0;right=0;fontSize=14;strokeColor=#6c8ebf;" vertex="1" parent="pSy5dS7yLw_mW9jkfrUr-8">
          <mxGeometry width="30" height="30" as="geometry">
            <mxRectangle width="30" height="30" as="alternateBounds" />
          </mxGeometry>
        </mxCell>
        <mxCell id="pSy5dS7yLw_mW9jkfrUr-10" value="Monthe" style="shape=partialRectangle;overflow=hidden;connectable=0;fillColor=#dae8fc;top=0;left=0;bottom=0;right=0;align=left;spacingLeft=6;fontSize=14;strokeColor=#6c8ebf;" vertex="1" parent="pSy5dS7yLw_mW9jkfrUr-8">
          <mxGeometry x="30" width="219.51" height="30" as="geometry">
            <mxRectangle width="219.51" height="30" as="alternateBounds" />
          </mxGeometry>
        </mxCell>
        <mxCell id="M_Y6TEZz4hXQEvN3mPzn-56" value="" style="shape=partialRectangle;collapsible=0;dropTarget=0;pointerEvents=0;fillColor=#dae8fc;points=[[0,0.5],[1,0.5]];portConstraint=eastwest;top=0;left=0;right=0;bottom=0;fontSize=14;strokeColor=#6c8ebf;" vertex="1" parent="pSy5dS7yLw_mW9jkfrUr-1">
          <mxGeometry y="175" width="249.51" height="30" as="geometry" />
        </mxCell>
        <mxCell id="M_Y6TEZz4hXQEvN3mPzn-57" value="" style="shape=partialRectangle;overflow=hidden;connectable=0;fillColor=#dae8fc;top=0;left=0;bottom=0;right=0;fontSize=14;strokeColor=#6c8ebf;" vertex="1" parent="M_Y6TEZz4hXQEvN3mPzn-56">
          <mxGeometry width="30" height="30" as="geometry">
            <mxRectangle width="30" height="30" as="alternateBounds" />
          </mxGeometry>
        </mxCell>
        <mxCell id="M_Y6TEZz4hXQEvN3mPzn-58" value="MontheName" style="shape=partialRectangle;overflow=hidden;connectable=0;fillColor=#dae8fc;top=0;left=0;bottom=0;right=0;align=left;spacingLeft=6;fontSize=14;strokeColor=#6c8ebf;" vertex="1" parent="M_Y6TEZz4hXQEvN3mPzn-56">
          <mxGeometry x="30" width="219.51" height="30" as="geometry">
            <mxRectangle width="219.51" height="30" as="alternateBounds" />
          </mxGeometry>
        </mxCell>
        <mxCell id="pSy5dS7yLw_mW9jkfrUr-11" value="" style="shape=partialRectangle;collapsible=0;dropTarget=0;pointerEvents=0;fillColor=#dae8fc;points=[[0,0.5],[1,0.5]];portConstraint=eastwest;top=0;left=0;right=0;bottom=0;fontSize=14;strokeColor=#6c8ebf;" vertex="1" parent="pSy5dS7yLw_mW9jkfrUr-1">
          <mxGeometry y="205" width="249.51" height="30" as="geometry" />
        </mxCell>
        <mxCell id="pSy5dS7yLw_mW9jkfrUr-12" value="" style="shape=partialRectangle;overflow=hidden;connectable=0;fillColor=#dae8fc;top=0;left=0;bottom=0;right=0;fontSize=14;strokeColor=#6c8ebf;" vertex="1" parent="pSy5dS7yLw_mW9jkfrUr-11">
          <mxGeometry width="30" height="30" as="geometry">
            <mxRectangle width="30" height="30" as="alternateBounds" />
          </mxGeometry>
        </mxCell>
        <mxCell id="pSy5dS7yLw_mW9jkfrUr-13" value="Quarter" style="shape=partialRectangle;overflow=hidden;connectable=0;fillColor=#dae8fc;top=0;left=0;bottom=0;right=0;align=left;spacingLeft=6;fontSize=14;strokeColor=#6c8ebf;" vertex="1" parent="pSy5dS7yLw_mW9jkfrUr-11">
          <mxGeometry x="30" width="219.51" height="30" as="geometry">
            <mxRectangle width="219.51" height="30" as="alternateBounds" />
          </mxGeometry>
        </mxCell>
        <mxCell id="M_Y6TEZz4hXQEvN3mPzn-59" value="" style="shape=partialRectangle;collapsible=0;dropTarget=0;pointerEvents=0;fillColor=#dae8fc;points=[[0,0.5],[1,0.5]];portConstraint=eastwest;top=0;left=0;right=0;bottom=0;fontSize=14;strokeColor=#6c8ebf;" vertex="1" parent="pSy5dS7yLw_mW9jkfrUr-1">
          <mxGeometry y="235" width="249.51" height="30" as="geometry" />
        </mxCell>
        <mxCell id="M_Y6TEZz4hXQEvN3mPzn-60" value="" style="shape=partialRectangle;overflow=hidden;connectable=0;fillColor=#dae8fc;top=0;left=0;bottom=0;right=0;fontSize=14;strokeColor=#6c8ebf;" vertex="1" parent="M_Y6TEZz4hXQEvN3mPzn-59">
          <mxGeometry width="30" height="30" as="geometry">
            <mxRectangle width="30" height="30" as="alternateBounds" />
          </mxGeometry>
        </mxCell>
        <mxCell id="M_Y6TEZz4hXQEvN3mPzn-61" value="QuarterName" style="shape=partialRectangle;overflow=hidden;connectable=0;fillColor=#dae8fc;top=0;left=0;bottom=0;right=0;align=left;spacingLeft=6;fontSize=14;strokeColor=#6c8ebf;" vertex="1" parent="M_Y6TEZz4hXQEvN3mPzn-59">
          <mxGeometry x="30" width="219.51" height="30" as="geometry">
            <mxRectangle width="219.51" height="30" as="alternateBounds" />
          </mxGeometry>
        </mxCell>
        <mxCell id="M_Y6TEZz4hXQEvN3mPzn-1" value="" style="shape=partialRectangle;collapsible=0;dropTarget=0;pointerEvents=0;fillColor=#dae8fc;points=[[0,0.5],[1,0.5]];portConstraint=eastwest;top=0;left=0;right=0;bottom=0;fontSize=14;strokeColor=#6c8ebf;" vertex="1" parent="pSy5dS7yLw_mW9jkfrUr-1">
          <mxGeometry y="265" width="249.51" height="30" as="geometry" />
        </mxCell>
        <mxCell id="M_Y6TEZz4hXQEvN3mPzn-2" value="" style="shape=partialRectangle;overflow=hidden;connectable=0;fillColor=#dae8fc;top=0;left=0;bottom=0;right=0;fontSize=14;strokeColor=#6c8ebf;" vertex="1" parent="M_Y6TEZz4hXQEvN3mPzn-1">
          <mxGeometry width="30" height="30" as="geometry">
            <mxRectangle width="30" height="30" as="alternateBounds" />
          </mxGeometry>
        </mxCell>
        <mxCell id="M_Y6TEZz4hXQEvN3mPzn-3" value="Day" style="shape=partialRectangle;overflow=hidden;connectable=0;fillColor=#dae8fc;top=0;left=0;bottom=0;right=0;align=left;spacingLeft=6;fontSize=14;strokeColor=#6c8ebf;" vertex="1" parent="M_Y6TEZz4hXQEvN3mPzn-1">
          <mxGeometry x="30" width="219.51" height="30" as="geometry">
            <mxRectangle width="219.51" height="30" as="alternateBounds" />
          </mxGeometry>
        </mxCell>
        <mxCell id="M_Y6TEZz4hXQEvN3mPzn-4" value="" style="shape=partialRectangle;collapsible=0;dropTarget=0;pointerEvents=0;fillColor=#dae8fc;points=[[0,0.5],[1,0.5]];portConstraint=eastwest;top=0;left=0;right=0;bottom=0;fontSize=14;strokeColor=#6c8ebf;" vertex="1" parent="pSy5dS7yLw_mW9jkfrUr-1">
          <mxGeometry y="295" width="249.51" height="30" as="geometry" />
        </mxCell>
        <mxCell id="M_Y6TEZz4hXQEvN3mPzn-5" value="" style="shape=partialRectangle;overflow=hidden;connectable=0;fillColor=#dae8fc;top=0;left=0;bottom=0;right=0;fontSize=14;strokeColor=#6c8ebf;" vertex="1" parent="M_Y6TEZz4hXQEvN3mPzn-4">
          <mxGeometry width="30" height="30" as="geometry">
            <mxRectangle width="30" height="30" as="alternateBounds" />
          </mxGeometry>
        </mxCell>
        <mxCell id="M_Y6TEZz4hXQEvN3mPzn-6" value="Day Suffix" style="shape=partialRectangle;overflow=hidden;connectable=0;fillColor=#dae8fc;top=0;left=0;bottom=0;right=0;align=left;spacingLeft=6;fontSize=14;strokeColor=#6c8ebf;" vertex="1" parent="M_Y6TEZz4hXQEvN3mPzn-4">
          <mxGeometry x="30" width="219.51" height="30" as="geometry">
            <mxRectangle width="219.51" height="30" as="alternateBounds" />
          </mxGeometry>
        </mxCell>
        <mxCell id="M_Y6TEZz4hXQEvN3mPzn-7" value="" style="shape=partialRectangle;collapsible=0;dropTarget=0;pointerEvents=0;fillColor=#dae8fc;points=[[0,0.5],[1,0.5]];portConstraint=eastwest;top=0;left=0;right=0;bottom=0;fontSize=14;strokeColor=#6c8ebf;" vertex="1" parent="pSy5dS7yLw_mW9jkfrUr-1">
          <mxGeometry y="325" width="249.51" height="30" as="geometry" />
        </mxCell>
        <mxCell id="M_Y6TEZz4hXQEvN3mPzn-8" value="" style="shape=partialRectangle;overflow=hidden;connectable=0;fillColor=#dae8fc;top=0;left=0;bottom=0;right=0;fontSize=14;strokeColor=#6c8ebf;" vertex="1" parent="M_Y6TEZz4hXQEvN3mPzn-7">
          <mxGeometry width="30" height="30" as="geometry">
            <mxRectangle width="30" height="30" as="alternateBounds" />
          </mxGeometry>
        </mxCell>
        <mxCell id="M_Y6TEZz4hXQEvN3mPzn-9" value="DayOfWeek" style="shape=partialRectangle;overflow=hidden;connectable=0;fillColor=#dae8fc;top=0;left=0;bottom=0;right=0;align=left;spacingLeft=6;fontSize=14;strokeColor=#6c8ebf;" vertex="1" parent="M_Y6TEZz4hXQEvN3mPzn-7">
          <mxGeometry x="30" width="219.51" height="30" as="geometry">
            <mxRectangle width="219.51" height="30" as="alternateBounds" />
          </mxGeometry>
        </mxCell>
        <mxCell id="M_Y6TEZz4hXQEvN3mPzn-10" value="" style="shape=partialRectangle;collapsible=0;dropTarget=0;pointerEvents=0;fillColor=#dae8fc;points=[[0,0.5],[1,0.5]];portConstraint=eastwest;top=0;left=0;right=0;bottom=0;fontSize=14;strokeColor=#6c8ebf;" vertex="1" parent="pSy5dS7yLw_mW9jkfrUr-1">
          <mxGeometry y="355" width="249.51" height="30" as="geometry" />
        </mxCell>
        <mxCell id="M_Y6TEZz4hXQEvN3mPzn-11" value="" style="shape=partialRectangle;overflow=hidden;connectable=0;fillColor=#dae8fc;top=0;left=0;bottom=0;right=0;fontSize=14;strokeColor=#6c8ebf;" vertex="1" parent="M_Y6TEZz4hXQEvN3mPzn-10">
          <mxGeometry width="30" height="30" as="geometry">
            <mxRectangle width="30" height="30" as="alternateBounds" />
          </mxGeometry>
        </mxCell>
        <mxCell id="M_Y6TEZz4hXQEvN3mPzn-12" value="DOKInMonthe" style="shape=partialRectangle;overflow=hidden;connectable=0;fillColor=#dae8fc;top=0;left=0;bottom=0;right=0;align=left;spacingLeft=6;fontSize=14;strokeColor=#6c8ebf;" vertex="1" parent="M_Y6TEZz4hXQEvN3mPzn-10">
          <mxGeometry x="30" width="219.51" height="30" as="geometry">
            <mxRectangle width="219.51" height="30" as="alternateBounds" />
          </mxGeometry>
        </mxCell>
        <mxCell id="M_Y6TEZz4hXQEvN3mPzn-13" value="" style="shape=partialRectangle;collapsible=0;dropTarget=0;pointerEvents=0;fillColor=#dae8fc;points=[[0,0.5],[1,0.5]];portConstraint=eastwest;top=0;left=0;right=0;bottom=0;fontSize=14;strokeColor=#6c8ebf;" vertex="1" parent="pSy5dS7yLw_mW9jkfrUr-1">
          <mxGeometry y="385" width="249.51" height="30" as="geometry" />
        </mxCell>
        <mxCell id="M_Y6TEZz4hXQEvN3mPzn-14" value="" style="shape=partialRectangle;overflow=hidden;connectable=0;fillColor=#dae8fc;top=0;left=0;bottom=0;right=0;fontSize=14;strokeColor=#6c8ebf;" vertex="1" parent="M_Y6TEZz4hXQEvN3mPzn-13">
          <mxGeometry width="30" height="30" as="geometry">
            <mxRectangle width="30" height="30" as="alternateBounds" />
          </mxGeometry>
        </mxCell>
        <mxCell id="M_Y6TEZz4hXQEvN3mPzn-15" value="DayOfYear" style="shape=partialRectangle;overflow=hidden;connectable=0;fillColor=#dae8fc;top=0;left=0;bottom=0;right=0;align=left;spacingLeft=6;fontSize=14;strokeColor=#6c8ebf;" vertex="1" parent="M_Y6TEZz4hXQEvN3mPzn-13">
          <mxGeometry x="30" width="219.51" height="30" as="geometry">
            <mxRectangle width="219.51" height="30" as="alternateBounds" />
          </mxGeometry>
        </mxCell>
        <mxCell id="M_Y6TEZz4hXQEvN3mPzn-16" value="" style="shape=partialRectangle;collapsible=0;dropTarget=0;pointerEvents=0;fillColor=#dae8fc;points=[[0,0.5],[1,0.5]];portConstraint=eastwest;top=0;left=0;right=0;bottom=0;fontSize=14;strokeColor=#6c8ebf;" vertex="1" parent="pSy5dS7yLw_mW9jkfrUr-1">
          <mxGeometry y="415" width="249.51" height="30" as="geometry" />
        </mxCell>
        <mxCell id="M_Y6TEZz4hXQEvN3mPzn-17" value="" style="shape=partialRectangle;overflow=hidden;connectable=0;fillColor=#dae8fc;top=0;left=0;bottom=0;right=0;fontSize=14;strokeColor=#6c8ebf;" vertex="1" parent="M_Y6TEZz4hXQEvN3mPzn-16">
          <mxGeometry width="30" height="30" as="geometry">
            <mxRectangle width="30" height="30" as="alternateBounds" />
          </mxGeometry>
        </mxCell>
        <mxCell id="M_Y6TEZz4hXQEvN3mPzn-18" value="WeekOfYear" style="shape=partialRectangle;overflow=hidden;connectable=0;fillColor=#dae8fc;top=0;left=0;bottom=0;right=0;align=left;spacingLeft=6;fontSize=14;strokeColor=#6c8ebf;" vertex="1" parent="M_Y6TEZz4hXQEvN3mPzn-16">
          <mxGeometry x="30" width="219.51" height="30" as="geometry">
            <mxRectangle width="219.51" height="30" as="alternateBounds" />
          </mxGeometry>
        </mxCell>
        <mxCell id="M_Y6TEZz4hXQEvN3mPzn-62" value="" style="shape=partialRectangle;collapsible=0;dropTarget=0;pointerEvents=0;fillColor=#dae8fc;points=[[0,0.5],[1,0.5]];portConstraint=eastwest;top=0;left=0;right=0;bottom=0;fontSize=14;strokeColor=#6c8ebf;" vertex="1" parent="pSy5dS7yLw_mW9jkfrUr-1">
          <mxGeometry y="445" width="249.51" height="30" as="geometry" />
        </mxCell>
        <mxCell id="M_Y6TEZz4hXQEvN3mPzn-63" value="" style="shape=partialRectangle;overflow=hidden;connectable=0;fillColor=#dae8fc;top=0;left=0;bottom=0;right=0;fontSize=14;strokeColor=#6c8ebf;" vertex="1" parent="M_Y6TEZz4hXQEvN3mPzn-62">
          <mxGeometry width="30" height="30" as="geometry">
            <mxRectangle width="30" height="30" as="alternateBounds" />
          </mxGeometry>
        </mxCell>
        <mxCell id="M_Y6TEZz4hXQEvN3mPzn-64" value="WeekOfMonthe" style="shape=partialRectangle;overflow=hidden;connectable=0;fillColor=#dae8fc;top=0;left=0;bottom=0;right=0;align=left;spacingLeft=6;fontSize=14;strokeColor=#6c8ebf;" vertex="1" parent="M_Y6TEZz4hXQEvN3mPzn-62">
          <mxGeometry x="30" width="219.51" height="30" as="geometry">
            <mxRectangle width="219.51" height="30" as="alternateBounds" />
          </mxGeometry>
        </mxCell>
        <mxCell id="pSy5dS7yLw_mW9jkfrUr-17" style="edgeStyle=orthogonalEdgeStyle;rounded=0;orthogonalLoop=1;jettySize=auto;html=1;exitX=0;exitY=0.5;exitDx=0;exitDy=0;fillColor=#dae8fc;strokeColor=#6c8ebf;" edge="1" parent="1" source="pSy5dS7yLw_mW9jkfrUr-2" target="GWjoIAEa0WmcNTmmGCFZ-323">
          <mxGeometry relative="1" as="geometry" />
        </mxCell>
        <mxCell id="pSy5dS7yLw_mW9jkfrUr-18" style="edgeStyle=orthogonalEdgeStyle;rounded=0;orthogonalLoop=1;jettySize=auto;html=1;exitX=0;exitY=0.5;exitDx=0;exitDy=0;fillColor=#dae8fc;strokeColor=#6c8ebf;" edge="1" parent="1" source="pSy5dS7yLw_mW9jkfrUr-2" target="GWjoIAEa0WmcNTmmGCFZ-326">
          <mxGeometry relative="1" as="geometry" />
        </mxCell>
        <mxCell id="pSy5dS7yLw_mW9jkfrUr-19" style="edgeStyle=orthogonalEdgeStyle;rounded=0;orthogonalLoop=1;jettySize=auto;html=1;exitX=0;exitY=0.5;exitDx=0;exitDy=0;fillColor=#dae8fc;strokeColor=#6c8ebf;" edge="1" parent="1" source="pSy5dS7yLw_mW9jkfrUr-2" target="GWjoIAEa0WmcNTmmGCFZ-363">
          <mxGeometry relative="1" as="geometry" />
        </mxCell>
        <mxCell id="-WW-cjC73RdXO4BsSWGo-2" style="edgeStyle=orthogonalEdgeStyle;rounded=0;orthogonalLoop=1;jettySize=auto;html=1;exitX=0;exitY=0.5;exitDx=0;exitDy=0;fillColor=#dae8fc;strokeColor=#6c8ebf;" edge="1" parent="1" source="GWjoIAEa0WmcNTmmGCFZ-2" target="GWjoIAEa0WmcNTmmGCFZ-314">
          <mxGeometry relative="1" as="geometry" />
        </mxCell>
        <mxCell id="-WW-cjC73RdXO4BsSWGo-3" style="edgeStyle=orthogonalEdgeStyle;rounded=0;orthogonalLoop=1;jettySize=auto;html=1;exitX=1;exitY=0.5;exitDx=0;exitDy=0;fillColor=#dae8fc;strokeColor=#6c8ebf;" edge="1" parent="1" source="GWjoIAEa0WmcNTmmGCFZ-33" target="GWjoIAEa0WmcNTmmGCFZ-311">
          <mxGeometry relative="1" as="geometry" />
        </mxCell>
      </root>
    </mxGraphModel>
  </diagram>
</mxfile>
